<mxfile host="Electron" agent="Mozilla/5.0 (X11; Linux x86_64) AppleWebKit/537.36 (KHTML, like Gecko) draw.io/28.2.5 Chrome/138.0.7204.251 Electron/37.6.1 Safari/537.36" version="28.2.5">
  <diagram name="Page-1" id="DKJsB6Dgz_EAZS3U8jMt">
    <mxGraphModel dx="983" dy="603" grid="1" gridSize="10" guides="1" tooltips="1" connect="1" arrows="1" fold="1" page="1" pageScale="1" pageWidth="827" pageHeight="1169" background="#000000" math="0" shadow="0">
      <root>
        <mxCell id="0" />
        <mxCell id="1" parent="0" />
        <mxCell id="4me7HTS10782GKuPLDVr-1" value="" style="shape=image;verticalLabelPosition=bottom;labelBackgroundColor=default;verticalAlign=top;aspect=fixed;imageAspect=0;image=data:image/png,iVBORw0KGgoAAAANSUhEUgAAATsAAAHPCAYAAAAs333IAAAABHNCSVQICAgIfAhkiAAAABl0RVh0U29mdHdhcmUAZ25vbWUtc2NyZWVuc2hvdO8Dvz4AAAAqdEVYdENyZWF0aW9uIFRpbWUAU2F0IDI1IE9jdCAyMDI1IDAwOjExOjMxIEJTVAEKvXsAACAASURBVHic7d15eEz39wfw90xmkslkk032XSQhYo2locS+VC21a1FF+m2pKqVVa4tGF8u3qhS19Guv2hVRiqoWQVANQRIiluz7Pp/fHzr5icwkM8nM3Jl7z+t5zvNw5y5nJpmTc7fPFQFgIIQQnhNznQAhhBgCFTtCiCBQsSOECAIVO0KIIFCxI4QIAhU7QoggULEjhAgCFTtCiCBQsSM606lTJ6Snp6N79+4qX3d2dsbjx48xcuRIuLm5IT09Henp6WjVqpXK+U+cOIH09HT06dNHn2kTgaBiR3Tm3LlzKCgowJgxY1S+Pnr0aFhbW+PQoUMwMzODo6MjGjRogGHDhlWb19/fH127doWjoyMsLCz0nToRACp2RGcUCgU2btyIQYMGQS6XV3t97Nix2LFjB/Ly8iqnnTp1CkOHDq0274gRI/Dnn3/qNV8iLFTsiE5t3LgRcrkcAwYMqDI9LCwMLVq0wPr166tM37VrF/z8/NC6desq04cPH47t27frPV8iHFTsiE4lJyfjxIkTeP3116tMHzt2LP7+++9q3dqDBw9w/vz5Kt1dSEgIAgICcODAAYPkTISBih3RuQ0bNqBnz55wdnYGAEgkEowePRrr1q1TOf/OnTurFLsRI0bgwIEDKCgoMEi+RBio2BGd27dvH3JycjB8+HAAQO/evdGgQQP8+OOPKuffvXs3fH19K3dlaReW6AMVO6KWW5s2CHntNa2XKy0txf/+97/KXdmxY8di7969yMzMVDn/o0ePcPbsWQwdOhQtWrRAw4YNcezYsXrlTsiLqNgRtRwCAtCwWbM6Lbt+/Xq0a9cOYWFheOWVV9Tuwiopd2WHDx+On376CaWlpXXaLiHqULEjenHjxg1cuHAB69evR2pqKk6dOlXj/Hv27IGPjw/eeecd2oUlekHFjujNhg0bEB4ejg0bNoCxmkf/f/r0KU6dOoWCggKcPn3aQBkSIRGBnkFB1Gg6fDicQkJwesECrlMhpN6osyOECAIVO0KIIFCxI4QIAhU7olZRVhYK09P1su6wsDC1FxkTog8SrhMgxuve8eO4d/y4Xtbt5uaGZnW8ho+QuqDOjhAiCFTsCCGCQMWOECIIVOyIWg2bNUMjev4D4QkqdkQt5yZN4NGuHddpEKITVOwIIYJAxY4QIghU7AghgkDFjhAiCFTsCCGCQMWOECIIVOyIWmUFBSijxxkSnqCBAIhatw8dwu1Dh7hOgxCdoM6OECIIVOwIIYJAxY4QIghU7Ihajo0bw6dzZ67TIEQnqNgRtVxbtoRvZCTXaRCiE1TsCCGCQMWOECIIVOwIIYJAxY6oJRKLwRQKrtMgRCeo2BG1pHI53S5GeIOKHVFL1qABSnJzdb7eXr16YcGCBQgMDMR3330HV1dXnW+DEFUYBYWqiFy8mPl1767TdX744YdMoVCw56Wnp7PAwEDO3y8F74PzBCiMNMykUgaRSGfrCwwMZKWlpUyVmJgYzt8vBb9D9O8/eMvV1RUbNmxASkoK16kIXkhICDp16qTyNcYYNmzYAAWdEOGEjY0NFi1ahJs3b3Kdit7wfoinsLAwNG/eHGfOnOE6FcFzdHRU+5pCoUBiYiIqKioMmBFRioqKQrt27Xhd7AAjaC/1GT179mRxcXGc50EB5unpyfLz81Xuxu7Zs4fz/IQcZ8+eZUOGDOE8D30GnY0l1biHh6PlhAk6X29KSgomT56MsrKyKtMTExMxZcoUnW+PkOfxfjeWaEckFiN88mTE792rl/Vv2rQJ165dQ1RUFJydnXHlyhWsWLECeXl5etkeIUpU7EgVwYMGQSQWI0GPw7FfvnwZUVFRels/IarQbiypZOfjg9ZRUTj/1VdQlJdznQ4hOkXFjgAApFZWiPzsM/y9axeexMVxnQ4hOkfFjsDM3BzdPv8ceQ8f4uoPP3CdDiF6QcXOiInEhvnxRC5aBAD4bcECGuWE8BadoDBCUrkcwYMHw9rVFee/+krv24vbvBmZt2+j4oVLQgjhEyp2RkRZ5MLeeAPm1ta4FxNjkO2m/f23QbZDCJeo2BmBF4ucvphZWCCwXz+AMb1dR0eIsaJixyFDFDkLW1u4tmwJr4gI+HbpguzkZFz69lu9bIsQY0bFrp7EUimcgoPRwMcH1u7usLCxgcjMDJl37iD+55+rzNt0xAjYeXvDTCqFfUAA7P39IZZK1a67gZ8f+q5eDQs7O5WvlxcU4OHFi7i8bl2V6cEDB8KvRw/YuLtD7uSEzIQEpF68iCPvvIPMO3fq/6YJMUFU7OrIo317NB06FC4tWqAkNxfZ9+4h58EDlOTmoqyoCAWPH1dbJv/RI4glEohEIogkEli5uEDWoIHabZQXFSHnwQPIi4pUvl6Sm4tcFUNXpf3zD0ry85H38CFy7t+nodUJARW7Omvg44OUP//E+WXLkPfwoUbLJJ8+XeX/IrEYPl26oNXEibDz9q42f/7jxzj3+eda55Zx6xYybt3SejlC+IyKXR39vXNnvdfBFAoknTyJ5N9+q7HoEULqjy4qroXUygovz52LgF699LYNZdHbO3o0Ts2di5z79/W2LUKEijq7GsidnNBz2TLkP36MB3/8offtPd/p+ffsCVtPT71vkxChoGKnhtzZGX1Xr8bDP//En8uXG/Q2KqZQ4O7RowbbHiFCQMVOBXNra/Rctgwp58/jz2XLuE6HEKIDdMxOhYiPP0ZeSgr+WrGC61QIITpCnd0LGr/yChyDgnBg3DgaAYQQHqHO7gUye3v8vngxSvPzuU6FEKJD1Nm94NqPP3KdAiFED6izI4QIAhU7QoggULH7l0vz5gYbBp0QYnj07QYgtbRE75UrYWFjw3UqhBA9oWIHwDk0FHmPHqE4J4frVAghekLFDkADX19k3b3LdRqEED2iYgfAxsND5SCYhBD+oGKHZ/fClubmcp0GIUSPqNgBkMhkKC8p4ToNQoge8brYubu7Y/DgwXB1dcXAgQMhEolUzicSi8EYM3B2hBiHbt26wcvLC71794abmxvX6egV42P069ePZWVlsefFxMQwuVxebd7IRYtY0MCBnOdMQWHIkEqlbNeuXVW+I1lZWax///6c56an4DwBnYeLiwvLyMhgqqxYsaLa/NZubkxqZcV53hQUhoy5c+eq/I5kZ2czDw8PzvPTdfByIIABAwbAwcFB5WuTJk3CuXPnDJwRN1JTUwXzXon2JkyYoHK6nZ0dhg0bhuXLlxs4I/3iZbGzU/NQaQCQyWSIiori/TE6W1tbuLq6wsfHh+tUTIqrqytWrlyp9vgun7i7u6t9zd7e3oCZGAYvi90fNTwc5/z58+jevbsBs+FGeHg49uzZw3UaJsfX1xfdunXD7NmzuU5F75o1a4bg4GCVr/31118GzsYwON+X1kds3ry52rGIkpIS1rp162rzNvDzYzI7O85z1mWEh4ez+/fvc56HqUX79u1ZYmIi53kYIpo1a8aKioqqfU8OHTrEeW76CN5eejJ+/HjMmjULKSkpYIzhxIkTCA8PR2xsbLV5W06YAN/ISA6yJIQ7169fR/v27Sv3hJ48eYLPP/8cr732GseZ6Qcvd2MBoKKiAl988QWOHj2KmJgY9OjRQ+28IpEIoOGdiADFxcVh4MCBePr0KTw8PFBRUcF1SnpD33BCiCBQsSOECIJRFrstW7agVatWXKdBCKmDoUOHYv78+VynUY1RFrsmTZrw/h49QvjKx8cHjRo14jqNaoyy2BFCiK5RsQOe3U2hUHCdBiFEj3h76Yk2rm7YgKKsLK7TIITokUGLnZeXF4qLi5GWllbjfJaWlujYsSPkcnm9t+nj4wOpVFrjPFn37tV7O4SYuiFDhkChgz2csLAwWFtb1zqfr68vcnNzkZmZWe9tasKgxW7OnDlISkrC559/XuN8jo6OGDJkSI0XAmtKIpEgi7o2QtRSNiAffvihTtbn4uKCR48e1TrfokWLcPHiRaxcuVIn262NQYudWCyGmZlZrfOlpKRg/vz5OHz4sAGyIkTY8vLy0LBhQ52tb8aMGWjevHmt84nFYogNeOcSnaAAYO3qCqkOdpkJIcaLih2Al+fNQ9Phw7lOgxCiR3Q2FoCthwcK0tO5ToMQokdG2dkxxng/kjAhfGWs31+j7OymTJmCGzducJ2GUejTpw+8vLy0Xi4gIAANGjTApEmT6rTd33//HTdv3qzTskTYtm/fjl9++YXrNKoxymL3559/cp2C0ejWrRu8vb21Xi4sLAw2NjYYOHAg8vPztV4+NzfXpIvdunXr4Ovrq/VyDRs2hJeXF2JiYuq03U2bNmHr1q11WpYvUlNTkZqaynUa1RhlsSP/b8aMGVovI5PJ8PjxYwDPLisYLsCTL1u3boWzs7PWy82dOxdmZmb466+/EBcXp/Xyly9f1noZYhhU7Hho0qRJsLCwAAAMGjQIQUFBuHXrFsdZGdZvv/2m9TKBgYEICQkBAPTr1w9z5szRcVaES0Z5goITRnhAtS4sLCwwb948yGSyymkLFy7kMCPT8dlnn1X+OygoCD179uQwG6JrRlnsFixYgMaNG2u1jJmZGd59911cvny5xmd+iiUS+HbtWiWKcnPBFIoq09zDw+v7NjgRFRUFS0vLyv9LpVIMHjwYQUFBHGZl/Bo1aoTBgwdDInm2syOTyfDFF19wnBV33NzccPXqVQwePFjrZSMjI9U+gJtLRrkb+8orr+DixYu4ffu2RvO//PLLWLduHby9vSGTySASidSe+laUlyPo1VerFTMHf38EPPeXPHbNGqRevFj3N8EBZVenagCFhQsXYsSIERxkZRoWLVpU5f8ikQiNGzdGz549cfz4cY6y4o6DgwNCQ0OxdetWxMbGYtKkSRqfsGrdujWaN2+O9evX6zlL7RhlZ6cpd3d37Ny5E8ePH0ejRo2q7LrV5EotP4SSnBz8Y4IPmH6xq1NSdnfadstCoezqXhwdR+jdXXl5OWQyGdq3b4+rV6/ihx9+gKOjI9dp1ZlJFjtzc3NMmzYNd+/exYABA2BhYaHVDcVPb9yosWu7sX07ygoLdZGqwchkMsyfP7/GYbHo2J1qL3Z1Ss93d0JmZmYGqVSKESNGICkpCe+//75GA3oYG5Mrdv3790dSUhIWL14MmUxWedZRW1c2bFA5nW9dnZJUKsVrr71G3d0L1HV1SkLv7p5naWkJa2trLF68GNevX0dERATXKWnFKI/ZmZmZwdXVFf7+/pXT/P39sWjRIjRv3rzW3VV/f/9qgxDee2GAzqfXryP14sVqx+5MtaubN29ejcVOaeHChRg5cqQBsjIN6ro6JaEcuwsKCkJZWVnl/z09PdWe6JPL5QgODsZvv/2Go0ePYtGiRVUG5HV0dKw80WNMjC8jAN7e3lixYkWVD9/GxkbjD/DChQuV/zYzM4OFhYXKAnllw4YqxY6vXZ3S892dpid/+Ky2rk5J2d3xtdg5Ozvjn3/+QXZ2duU0MzMzmJubq11GJBJBIpHglVdeQY8ePVD4XIMgk8lw584dveZcF0a5G5uYmIgRI0bAwcGhMuzs7LBo0SKUlJRUKYKqODk5VS7XqVMn5OTkqJxP2d0p8b2rA57dpL1gwQL9JmUiauvqlJTdXa9evfScEXdEIhGcnZ0rvzcvvfQSSkpK1M5fUlKCkpISfPrpp7C1ta3yXZ03b16d7j7RN6MsdqoUFhZi7ty5CA0NxenTp1FSUqKTkRWUx+7Ki4p43dUpmZubY8iQIYI/dqdpV6dEx+6eUSgUKC0txf79++Hj44P58+ejtLSU67Q0YjLFTunOnTvo0aMHXnnlFSQnJ6OoqKhe63t6/TqKs7KQeukS77s6JcaYUT6x3ZA07eqURCIRAgMDed3d1aawsBDx8fHo0qULhg8fjidPnnCdklZMrtgpnThxAo0bN8bs2bNRVFRUY8tdm8x79/D4yhUdZmcYb7/9ttaFDnjW3Q0dOlSw3Z22XZ2SULu74uJi5Ofn45NPPkGzZs1w/vx5rlOqE5MtdgBQVlaGFStWIDAwEAcOHKj1WJ7a9eTno6KOy3JFJpNh7ty5dSp2gLC7O227OiWhdXdSqRRlZWX4/vvv4eHhgRUrVujkUYtcMcpi99VXX+HSpUsaz//w4UMMGzYMXbt2xYYNG0z6B6KpunZ1SkLt7gICAurU1SkJpbtLTU3Fli1bEBYWhqlTpyI3N1fjZX/55Rds2bJFj9nVHTNUrFu3js2ZM8dg2wPAwsLC2JMnT2qcx6NtW2br6WnQvOoTMpmMZWRksPoqKSlhW7du5fz9GDK2b9/OSktL6/W5FRYWsl69enH+XnQVzs7OjDHGzMzMDLrdbdu2sWnTphlse0bZ2RnawwsXkJuSwnUaGnv77bc1vg+4JsruLjAwUAdZGb+AgAC89tprde7qlITS3fENFTsTozxWV9M9sNoQ0rG7RYsW6eRyJaEdu+MLKnYm5j//+Y9Oujolc3NzDBs2jPfdnbKrq+muAG1Qd2d6jLLYjRkzBm5ubgbbnkQmg0iLUVO4IpPJMGfOHJ11dUpC6O501dUpKbu73r1762ydXFHu1utqJJPmzZsb5edilN/w9957D61atTLY9iJmzUKjPn0Mtr260nVXp8T37k7XXZ2STCbD0qVLdbpOLih/p+o6gtCLevTogdGjR+tkXbpklMXO0MwsLGCmox+0vuirq1Pic3en665OiU/dnRAY5agnpLrhw4fDwcEBBQUFGs0vFoshk8mqjEZREzMzMwwfPhzvvfceMjMz65OqUWnUqBGGDRum1eCu2rC0tMTSpUtx9OhRvayf6A4VOxPx888/48aNGxrP36RJE3z55Zfo16+fxsuUl5fzqtABQMuWLfH06dMaH8L0PKlUCjs7O6Snp2u8DRsbG9jZ2akdXYcYByp2JiIvLw+xsbEazy8Wi1FaWqrVMny0e/du7N69W+P527dvj+3bt8PPz0+PWREu1Fjs/Pz8EB8fr9MDu9u3b691noCAABw6dEhn26zrPbOECIFyUFxtbgmrjSZ7IU2aNMHIkSOxbNkynWwzKysLLi4uar/vNRa7xMRENGrUqN5XnCtZWFggMTGx1vmSkpKwatUqnDp1qt7bDA4OxubNm+u9HkL4qry8HAAQFham8THhmkycOBE+Pj61zhcZGQknJydUVFTUe5vAsyGoampsat2NffDggU4S0UZFRQUeP35c7bkRdWFtbS2IgQEIqa+kpCTk5eXVez0ZGRnw9PSsdb6srCxkZWXVe3uaomN2AO7FxCAnOZnrNAghekTFDkCSDnaXCSHGjS4qJoQIglF2dj///DPi4+O5ToMQUgcXL16s8hxZY8L54IH6CIlEwubMmcMePXrEFAoFO3PmDGvdurXq+UUizvPVdYSHh7P79+9znoepRfv27VliYiLneRgqxGIxGzx4MGOMsZYtW3Kej56D8wT0Etu2bas2wmxpaSlr27ZttXk7zZnDAng08ixAxa6uIaRi5+npyc6cOVP5/VAoFOz7779nMpmM89z0Ebw8Zte5c2eMHDmy2nSpVIpvvvmm+nS5HFIrK0OkRohREIvF2LFjBzp16lQ5TSQSYeLEifj00085zEx/jPKYXX21a9dO7Wtt27ZFbGxslVEwbD08UDpsGIpnzzZEegZhZWVF1xfWkUQigb+/P9dp6FV4eDgiIiJUvjZlyhTMnz+/3s9kNja8LHY1XahYUFCA6OjoKtNCR45E1r17ePjXX/pOzaDu37/PdQomJzMzE5aWllo93c4U1XQLqEwmg7OzMy9/fzjfl9Z1ODs7s7S0NJVPhvryyy+rzd91yRIWPHgw53lTUBgqWrZsqfbpaVlZWUwqlXKeo66Dl8fs0tLS8Prrr1cbrujIkSOYN28eR1kRYjyuXLmCHTt2qHxtzpw5vB08g/OKq69wcXFhixcvZvn5+axv375q56POjkKIYWVlxVavXs3KysoYY4zl5uay9957j4l4eCnWv8F5AnoNTR6STcWOQsjh6enJGGPM3t6e81z0Gbw8QaGtB+fOIevuXa7TIIQTynHsSkpKOM5Ev6jYAUg4fJjrFAghesbLExSEEPIiKnaEEEGgYkcIEQQqdgDsvL3x6g8/cJ0GIUSPqNgBKHj6FA38/WHl4sJ1KoQQPaFiB6C8uBhPrl6Fl5obowkhpo+K3b/uxcSgUe/eXKdBCNETKnb/Sjp1Cnbe3nBu2pTrVAghekAXFf+rrLAQN3/6CS3Gj0fM9Olcp8MLYqkUbq1awbtjR9j5+MDS0REikQhFWVnITUlByh9/4OGFCyjn2bhpxDhRsXvOje3bMXjbNnhFRODBuXNcp2OyxBIJggYMQPNx41BWUIDks2eRcOgQCtLSwCoqIHd2RgM/P7QcPx6dPvkE17duxd+7dlHRI3rH+Q26+gxNBgJ4Pvx79GB9Vq3iPG9TDWtXVzZg82b26saNzD08vNb5nZs0YX1WrWJDfvqJOTRqxHn+QgxbW1vGGGNyuZzzXPQcnCeg19C22AFgIrGY87xNMRwCA9nIQ4dY+OTJWn+GoSNHstHHjmlUICl0G1TseBJ1KXYU2oelgwMb9vPPLHTkyDqvw7drVzb66FHWwNeX8/cjpBBKsaOzsUQnOn7yCR5euIAb27fXOJ/YzAwvz5sHG3f3aq8lnTyJGzt2oMtnn0Ekpl9Nolv0G1WL5mPHoteKFZDZ23Odis408PODU3Cwztbn2rIlnIKDcUHFYyqfJzYzQ8THHyOgVy+1j668tmULRCIRAvv101l+cicnna2LmC4qdrX4e+dOFDx9ioGbN8OvWzeu09EJO29v9N+wAb1WrIBTSEi919d87Fhc+/FHlBUUqJ2ngZ8feq9aBZ/OnWtcF1MocHndOjR7/fV656UUuXgxun/xBRyDgnS2TmJ6qNjVory4GL8vWYI/ly1D+OTJ6LNqFdxat+Y6LZ1wDw9H//Xr61X0zK2t4dKiBRJjYmqcL3LRIhSmpeHEzJm1rvPBuXOQ2dnBPiCgTjm9SCQSwSsiAq9u2EBFT8DoOjsNJf32Gx7+9ReCBw1C5wULUJKbizuHD+PvnTuhqKjgOr16cQ8Ph3t4OFIvXkTs2rVI/+cfjZd1a90aWXfvojAjo8b5jk+bhoKnT2Hn41PrOhXl5Ui9eBHu4eG6HS7/36Ln9dJLePDHH7iyYQMybt3S3fqJUaNip4WyoiJc37YNN3fvhldEBDwjIiCxtERpfn7lPM5NmsCtTRswhULlOipKShC/dy8U5eWV06xdXeHRrl2V+VhFBUoLC5/9R6HAg3PnUPHc4+3Mra3h3qYNyktKqqwLeHZszNzGBhm3blV5TSQWw87HR+3xOnVFz8rFBWIzs2epVFSgTJkXADsfH+Q9fKj2M1MqePq01nmel/vwIawaNtRqGY1R0RMkKnZ1UFFWhqTffkPSb79Ve00ik8Ha1bX6dAsLmJmbo6K0FGbm5lWKkI2HB9zbtAFEIphbW1dblikUSLt5s0rBsA8IQLPXX1d51lLWoAGsnJ1RVlRUpeiKxGJI5XKAsRrfn3t4OJxCQvDrRx+hMD0dr3z/PcytrdWeIf1nz54a11cXRZmZaDVhAgL79kVZYSEUFRW4feAArv34Y5X5+q1dC8fGjSESi8FUvK+K4uIqfySq+LfoeUdEoDAjA9mJiWCM4UlcHK5u3Fhl1ubjxsHhhd3qitJSlP/7kJq8lBRc37atyuuN+vRBw9DQKn8Mn1eYkYGbu3ZVmWZubQ2IRCjNy1OdM6kzKnY69ujyZTy6fFm7ZWJj8Sg2VqtlnsTF4eCECVoto+TTuTO6Llmi8rWyoiLE79mD61u3ouTfp05t69NH7brC3ngDtl5edcqjJlK5HKmxsYjbtKlyWv6jR9XmO//VV3Bu2lTlHwkAKMrIQNNhw2Dp4KDydVZRgdTLl5/94fq3WGYnJVWbL/3mTRRnZT37g6HiTHL+kyfVppUVFqotdMCz2+pe1GL8eIQMGYKsu3fx8K+/cPfoUZX5EO1RsSMAVBc5TRRlZMC1ZUud5yN3ckLW3bu17l5mJiQgMyGhxnmCBw2qNk1RVoaEI0dwdeNGFKal1ZrPwwsXap3nRcmnTyP59Gmtlrnw3//i6saNzwZQ6NQJ/TdsQHp8PK5t3lynHMj/o2IncHUtckoZt2+j7dSpEEsk1Y4d1odL8+a4/P33OlufkrZFjguleXmVhfLPZcsQNHAgOs2di8zbt/H755+jMD2d6xRNEhU7gapvkVPKvHMHJbm5cG3ZEqkXL+okN1svL9i4u+tsfYBpFDlVygoLcWPbNtzavx9hb7wBa3d3Knb1wPk9a/oMuje2esidnZm5jY3O1td83DjWe+VKjeaVyGTMtWVLJrW0VDtPxMcfs44ff6yz/IIGDGByJyfOP3djDaHcGwsjSECvQcVO/yGxtGTDDxxgXhER9V6XY+PG7PUTJ5hVw4acvy+hhFCKHd1BQeqtvKgIf379NTrNmVOvM7MyOzt0XbIEV9at0/q6PCFq1KcPWr71FtdpmAwqdkQnkk+fxj8//YSey5ejgZ+f1stbNWyInsuX4/HVq/h75049ZMg/j69eRfCgQfDr3p3rVEwG5+2lPoN2Yw0bzUaPZqOPHWON+/fXbABPkYj5dunCRhw8yNq+9x4Tm5lx/h5MKTzatmWjjx1jVi4udV6HUHZjRf/+g7fCwsIQExMDF3oAtsG4h4ej3fvvA4whfu9e3D97ttpuqczeHt4REQjs3x9Wzs64uGoVEk+e5Chj09bhww9haW+Pk7Nn12l5W1tb5OTkwMrKCoXP3QrIN1TsiF6IxGL49+wJ/x494Na6Ncry81GUkQFFRQUsnZwgs7PD0+vXkXjyJBIOHUJFaSnXKZssC1tbvLZzJ07MmoWn165pvbxQih1dZ0f0gikUuHv0KO4ePQqppSWsXF1h5ewMkZkZCtPSkP/4cY23UhHNe8mZGwAAIABJREFUleTm4ubu3Wg+ZgxiZszgOh2jRcWO6F1ZURGyExORnZjIdSq89c+ePQh74w1YubigQMV9uoTOxhLCCyU5Obi5a5faAQ8IdXaE8Mal777jOgWjRp0dIUQQqNgRQgSBih0hRBCo2BHCIx0+/BDeHTtynYZRomJHCI9Y2NjA2t2d6zSMEhU7QniEVVSofTCS0NGlJ0QlBwcHhIaGwtHREWlpabh27RpyaxnRWCQSoWnTpvDx8QFjDPfu3UN8fLxetuXj44MePXrAy8sLCoUCiYmJOHr0KJ7S0FAGExgYiNDQUCgUCvz999+4c+dOldddXFxgb2+v8nfA3t4eHh4euHnzJhTPPQHP3t4eXl5euH//PrKzs3WeM+ejEegzaNQT7aJNmzbs8OHDrKSkhMXHx7M//viD3b59mxUXF7M9e/awJk2aVFvG0tKSzZo1iz18+JBlZGSwCxcusNjYWJadnc0SExPZ5MmTmVQqVbmtI0eOVNlWQkICKy4uZj/99JPKbTVq1Ijt27ePFRUVsWPHjrFvvvmGrV69mp0+fZqVlJSwjRs3Mpd6jABi6tF5/nzWdMQIrZbRdtQTW1tbdvToUcYYYyUlJaykpIQxxtixY8dYgwYNKueLjo5m6enpKtfx9ttvM8YYs7a2ZgCYtbU12717N2OMsdzcXMYYY1u3btX1SCz6++Dt7OzYxIkT2cqVK9ny5cvZhAkTmJ2dXZV5OnTowN566y2Vyzdt2lTtF0Uul7OpU6fWmgMVO81jypQpLCcnh82fP581fGGkYE9PT7Z06VKWk5PD3njjjcrpHh4e7PLly+zcuXOsa9euzOy5IZokEgnr168fu3LlCjt9+jRzdHSsfO29995jOTk5bN68eTVu6/XXX6+c3qlTJ5aRkcGWLVvG7O3tq+Xv6enJ/ve//7Hk5GQWEhLC+efJRRii2K1du5Y9evSIdejQgYlEIiYSiVhkZCTLyMhgO3bsqJxPm2K3evVqlpyczIKDgxnw/9/b5cuX6/Lz0c+HHhISwh4/fswyMjLY8ePHWUxMDMvOzmZPnjxhYWFhdfpAlCEWi9mPP/7IsrOza82Dip1mMWbMGPb06VPWokWLGufr2LEjy8rKYv369WPW1tYsLi6Offfdd1WK3IthYWHBduzYwU6fPs2kUikbO3Yse/LkSa3b6tSpE8vOzmZ9+vRhPj4+LC0tjY0bN67W9zJ//nyWkJBQ7Q+rEMIQxe727dts2bJl1aZ/9NFHLD09nYn/HcdQm+/248eP2fTp06vMs3jxYnb79m1dfj76+dAPHDjAYmNjmZWVVeW0Bg0asGvXrrFz585VTtO22Lm6urLDhw8zxliNxc7KyopFR0ez+Ph4VlZWxj7++GOVHSIFmIODA8vKymKRkZEazT906FCWkpLCvvrqK/brr79W/nLXFBYWFuzKlSts/vz5LCsri3Xu3FmjbQ0fPpzdv3+f7dq1i61Zs0ajZUQiETt69Cj79NNPOf9sDR3aFDupVMo+/vhjdvnyZcYYY1999ZVGBe/o0aMsISGBNW3atMb5tPluSyQSZmFhUWWezZs3s2vXruny89HPh56QkMBWrFhRbfqQIUPY/v3761T97e3tWV5eHjtz5gxbsmSJ2mInl8vZ9evX2YtOnjxZYwci1Hj//ffZL7/8otUyFy5cYIwx1rZtW42X6d+/P2OMsUOHDmm1rUuXLjGFQsG8vb01XqZjx44sNTWViUQizj9fQ0bwoEHMPTy81vnMzMzYyZMnq31Hrl27xixrePIbABYcHMySkpIYY4zdvHmTfffdd2zo0KHV9sCio6NZSUkJ27dvX7W4evWqyr02ZbRt25aVlZWx9957T2efjd7OUZ89exbjx4/Hu+++W2XgzJ9++gkDBgyocgZGU+Xl5Rg+fDhefvll3L9/X+18H330EUJDQ6tNj4yMxPjx47XeLt9169YN+/bt02qZffv2ITU1FRe0eEr9sWPHUFhYiP3792u9rVu3btX4M3/R+fPnYWNjA39/f622Zeri9+7V6Hm7b731FiIjI6tNb9asGWbNmlXzNuLjERISgtGjR+PKlSsYOHAgdu3aheTkZLz22mtV5mWMIT09vVrk1zCWYatWrXDkyBHs378f33zzTa3vRVN6u/Tk/fffh5WVFb755husWrUK8fHxOHnyJLZt24Zz585VmdfBwUHlaWZzc/Mq/8/Ly8ORI0dq3Xa3bt3UvjZ37lz06NFDw3chDO3bt8eGDRu0WiYpKQkpKSlaLVNaWopHjx4hOTlZq+WSk5ORruWDoSsqKlBaWoo1a9YgKytLq2WFoEOHDmpf6969OxYsWFDj8kVFRdi2bRu2bdsGAGjZsiWWLl2K7du3IzAwsPJnnJ+fjwkTJlRb/u2330ZERES16X379sXOnTuxf/9+vPnmm2CMafGuaqa3Ypebm4vhw4dj+vTp6NOnD7p27Yphw4bhnXfewfLly/HBBx9UzltQUIDJkydXW0fXrl3x5ptvar3t4uJita+lpaUhNjZW63XyWXp6Ok6fPq3VMsePH8fjx4+13taUKVNw/vx5rZY5duyY1oUVAL7++muYmZmhlIZ8ryYgIACenp4qX6vp+9OyZUts3rwZr776KpKSkiqnX7lyBaNHj8bTp0/x0ksvaf0HDQAmTJiANWvWYOnSpZgzZ45OC52Szo8biEQi5uDgUO14iVQqZUuWLGGMMda6devK/Xptz8YqX1N3zC4qKqrasQilvn37cn5chYKC6+jXr5/a78jEiRPVLufg4MCKiorYqlWrqr3WqVMnxhhjL730EgO0+24PHTqUVVRUsKioKL29Z70cs4uIiEBGRgZatWpVZXpZWRmio6MBAI0bN9bHpgEA33//PXbv3l1t+ooVKzTaDSbEVLV48034qjgW96LDhw9jxYoV1abv3LkT69evV7tcZmYm5syZg3fffRe//fYbpk2bhqioKKxcuRIHDx7EoUOH8Mcff2iVs1wux3fffYeHDx/Cz88P0dHRlTF//nyt1lUTvezGXrx4EY8fP8ZXX32FgQMHIicnp/K10aNHgzGm111JxhiGDRuGIUOGYNSoUejduzcGDBiAmJgYvW2TEGNg6+WF8pISjeadNm0ajhw5gpEjR+LNN9/E6NGjK4/B1eTrr79GfHw8oqKiMHXqVMjlciQnJ2PRokX473//WznfvXv3qh2fV0pNTcXp06dRUVEBPz8/3LhxA8Cz48fPq+lERl3opWXs1q0by83NZdnZ2Wz//v1s+/btLC4ujikUCvbJJ59UzqeP3djngy4qphBSvDxvHgsdNUqrZYTykGy9naD49ddfERQUhJEjRyIsLAxyuRzHjx/HhAkTcPG5U+MnTpxAZmamynVcunQJCxcuVHmA+dKlS5W7xIQQognOK64+gzo7CiEFdXbqgwa+IoQIAhU7QoggULEjhAgCjVRMCI9kJiQgtw53mwgBFTtCeOTG9u1cp2C0aDeWECIIVOwIIYJAxY4QIghU7AjhkSbDhsFLxThxhIodIbzi2LgxGvj6cp2GUaJiRwgRBCp2hBBBoGJHCBEEKnaEEEGgYkcIEQQqdoQQQaBiRwiP5KWmoiAtjes0jBINBEAIj1z94QeuUzBa1NkRQgSBih0hRBCo2BFCBIGKHSE8EtivH9zDw7lOwyhRsSOER1xatIBTcDDXaRglKnaEEEGgYkcIEQQqdoQQQaBiRwgRBCp2hBBBoGJHCBEEKnaE8EhxdjaKs7O5TsMo0UAAhPDIpW+/5ToFo0WdHSFEEKjYEUIEgYodIUQQqNgRwiO+XbrAJSyM6zSMEhU7QnjEs0MHuLRowXUaRomKHSFEEKjYEUIEgYodIUQQqNgRQgSBih0hRBCo2BFCBIGKHSE8UlZUhPLiYq7TMEo0EAAhPHLhv/8FY4zrNIwSFTtCeIQpFFynYLRoN5YQIghU7AghgkDFjhAe8Wjblh6SrQYVO0J4xLdrV3i0b891GkaJih0hRBCo2BFCBIGKHSFEEKjYEcInjEEkEnGdhVGiYkcIEQQqdoQQQaBiRwiPVJSVoaKsjOs0jBLdG0sIj1xavRqKigqu0zBKVOwI4REa3kk92o0lhAgCr4udWCyGt7c3zMzMuE6FEMIx3ha7yMhIJCQk4ODBg3B0dMRff/2FJk2acJ0WIXrVMDQU9v7+Wi3j5eUFAJg6dSratm2rj7SMBuNbNGnShBUVFbEXpaamMkdHR87zo6DQV7w0cyZr8eabGs//xhtvsMLCwsrviEKhYN9++y0TiUScvxddBy87u4ULF0Imk1Wb7ubmhsmTJ3OQESHGp0mTJli3bh0sLS0rp4lEIrzzzjuYMGECh5nphwjPqh6vXL9+HaGhoSpfKy0tRUFBgYEz4saaNWswe/ZsrtMwKU5OTujSpYvJ3nIVNGAASnJzkXTqVK3zjho1CgMHDlT52sWLF3m3S8vLS0/u37+vttht2rQJS5cuNXBGhjdp0iR4eHhwnYbJmTBhAqZPn47k5GSuU6kTa1dXVJSVoUiDQuXt7a32NQcHB12mZTQ435fWdURERLDy8vJqx+xycnKYt7c35/kZImbOnMk2b97MeR6mFp988glbv34953nUNV768EPWYvx4jeYdP358te+I0tatWzl/L7oOXh6zO3fuHCZMmIDc3NzKaSkpKRg0aBDu37/PYWaEGI8tW7bgwoUL1abn5OTw8vAHL4sd8Gx31dfXF++++y6ys7PRuHFjnDx5kuu0CDEa5eXl6NGjBzZt2gQAKCkpwS+//ILw8HCT3Y2vCS+P2SllZWXh999/R2lpKYqKirhOhxC9U1RUaPXs2NzcXMycORPjxo2DlZUVKnh8Xy2vix0hQnNl/Xooysu5TsMoGeVu7OHDh9GhQweu0yDE5JTk5qKssJDTHMaOHYvly5dzmoMqRlnsXFxceHvqmxC+c3Z2hpOTE9dpVGOUxY4QQnSNih0hPGLv7w9bT0+u0zBKVOwI4ZHgwYMR0KsX12kYJYOejQ0NDUVeXl6t1/DY2Nigd+/eOrndydPTE+bm5vVeDyF8pbwPeOLEiVBocdmKOu3bt1c5EMeLWrRogbS0NDx8+LDe29SEQYvd1KlTkZSUhMWLF9c4n5WVFVq0aAEXF5d6b9Pc3By3b9+u93oI4auCggLEx8eja9euOllfYGAg8vLyap1v5syZuHDhAlasWKGT7dbG4NfZaTKaxOPHjxEdHY3Dhw8bICNChK2goAAhISE6W9+MGTPQvHlzjeY15OgydMyOECIIVOwIIYJAt4sRwiNOwcGc30FhrIyys1MoFLy+IZkQfRFLJBBzfPVBRUWFTs7q6ppRdnavv/46kpKSuE6DEJOTdvMm5wMBbNy4ETY2NpzmoIpRFju6VOQZFxcXJCcnw8LCos7rGDNmjNbLKBQKdOnSBWfPnq3zdrkkkUjQv39/SCTa/3qHh4ejYcOGGDp0qNbLMsZw9OhR5Ofna72srpQXFUHB8V5RdnY2srOzOc1BFaMsduSZJ0+ewMXFBWKxdkcbbG1tcfv2bUilUrz88sv4+++/td62Mf6yasrBwQFRUVF1ejh6REQEpFIpJk2apPWyjDHEx8fjxo0bWi9L9I+KnZHLycnRepmpU6dWXr/00Ucf4ZVXXtF1Wkbt6dOn6N27t9bLtWnTBn/++ScA4Ntvv8W+fft0nRrhkFGeoCB1Z2trixkzZkAqlUIkEqFHjx4aX+ApdNHR0RCJRDAzM8PSpUtN8nGK5lZWkDz3HFjy/4yy2H3zzTdo1qyZVsvI5XIsWbIEqampJvlLqisffPBBlfcvFotrvT2PAK1atUKnTp0qDxl4enpiwIABHGelPcfgYDg2blzv9Xh5eeHJkyeYPHmy1ocD+vfvj+nTp9c7B10zyt3YDh064OjRo7h+/bpG8w8bNgyrVq2CtbU1LC0tIRKJwBjTc5bGR9nVyeXyymkSiaSyu4uLi+MwO+P2xRdfVPlSy+VyLF26FPv37zfq36UuCxfC1sur8v82Hh5gFRV49YcfKqdlJyXhzKefarVeW1tbODo64osvvsDUqVMxYcIEnD59WqNlg4KCjHJvwig7O00FBwfj7Nmz2Lx5M5ydnWEp8Pb9xa5Oibq7mrVq1Qovv/xytQ7GFLq7lD//hGNQUGVI5XKY29hUmZZy/nyd1l1eXg5LS0sEBATg2LFjOH78OHx9fXX7BgzIJIudvb09Vq9ejevXr6NDhw4aDSfDd3Z2dtW6OqXnuztS3RdffKHyjLeyuzPmwyJ3jx1DTg3PQs598ACJv/5ar22IRCJYWFigS5cuuHXrFj777DOT/M6ZVLETi8UYO3YsEhMTMW7cOEgkkjpdXsBH06dPr/ESFeruVFPX1Sl5enpi4MCBBs5Kc0yhwLUtW9S+fmXDBq0erVgTqVQKc3NzTJ8+Hffv36/TNZxcMspjdhYWFmjRogVKSkoqpzVt2hTTp09Hw4YNa73Itlu3bpXHWUQiEUQiEY4fP67XnLlkZ2eH6dOn17gbT8fuVFPX1SnJ5XJ8+eWX2L9/v1HeAgU86+7CxoyBnbd3lenadHUDBw6scjG0r6+v2s/F0tISlpaWWLduHT788EN8/fXXSElJqXw9MDDQKDs/oyx2rq6umDx5MsaPH185zd3dXeMPcM2aNZX/Njc3h5OTE6+P502fPl2jXS1ldye06+7Uqa2rU3Jzc8OAAQOwd+9eA2WmHWV312nOnCrTNe3qXFxcsHfvXty7d69ymrm5ea13oJibmyM0NBQrV65Eenp65XQ7Ozvcr2HXmkvMULFu3To2Z86cWue7dOkS69evX5VpEomERUVFsby8PFZcXMxqIhaLK5cLCwtjT548Mdh7NHTY2dmxgoKCGj+P55WUlLDmzZtznrcxxIkTJ1h5eblGn9udO3eq/F4ZW4jEYjZ4+3b25rlz7M1z59hrO3YwkYb5Ojs7M8YYMzMzq5zWtGnTGr9nBQUFLDMzk40ZM4aJRKIq65sxYwb78ccfa93utm3b2LRp0wz2GZnMMbvy8nKsXbsWPj4+2LRpE0pLS2lkFGje1SnRsbtnNO3qlJTdnbF68didLo/VPa+srAxlZWXYuHEjfHx8sGXLFqO+NOd5JlPslDIzM/H222+jQ4cOiIuLQ6GAx+7S5Fjdi+jM7DO1Hat7kfLYnbb3KRuS8sysLs7AqlJSUoIzZ84gODgYkydP1ug5E8bEeH9ytbh8+TLatGmDcePGIT09HUVFRVynZHDadnVKQu/utO3qlEylu9N1V1dQUICUlBQMHjwY3bt3r3Jsz5QYbbHTpDVmjGH37t0ICAjA2rVrUc7xOF6GVJeuTkno3Z22XZ2SqXR3uurqzM3NUVxcjE8//RT+/v44cuSIRssZ626tUf7UZs+ejfNaXPWdm5uLadOmoVmzZvj000+N9hIBXarvvYdC7e7q2tUpubm5GfV1dxZ2djDXwcCZ9+/fx5IlS+Dn54cvvvgCZWVlGi/7888/47///W+9c9AHg50N0fRsrC6Dj2djtT0DW9OZ2bCwMM7fjyFDmzOw6hjzmdl2U6eylhMmaLWMqrOxhgg6G0tqpasRJYTW3dW3q1My5u5OJBZDZMS72VyiT8XEKI/VqboHVlsSiQQ9e/ZEWFiYDjIzfkuXLtXJ8Ta5XF7n436EO/TTMjG6HidMKN1dq1at0LlzZ53dS23M3R1RzSiL3QcffAA/Pz+u0zA6uuzqlITS3emqq1Oi7k69Dh06YOTIkVynUY1R/qRGjRqFJk2acJ2G0anrdXW14Xt3p+uuTsnd3R2DBg3S6Tr5ICIiAn379uU6jWqMstiR6upzXV1t+N7d6bqrU7K0tKTuzoTQT8lETJ8+vV7Pj62NVCrlZXenr65Oyc3Nzai6O8aYUQ82yiWjHOKJVHfv3j3873//03j+0NBQNGjQAL///rvGyyQkJNQlNaM2c+ZMiEQi5ObmajS/hYUFxGKxxrcfymQyfPTRR9izZ0990tSZhEOHoBDQnUTaqLXY2dra6uyvooWFhUZ/dUQiEaytrWFvb1/vbdra2vLiL92mTZuwadMmjeefOXMmmjZtinHjxuktJ1Mwe/ZsrF+/XuP5R40aBVdXVyxbtkzjZR49elSX1PQi886dOi9rb2+vk5GElA+9qo1IJIKlpaVOvucAUFpaioKCArWv11js/Pz8cOfOHZ0ek9CkO/H398eOHTt0tk0h3TNLqrp3755WN663a9cOCoUCJ06c0GNWxkUqlQIA0tLSdLbOv//+u9Z5goKCMGLECJ0dPsnNzYWTk5PaW9tqLHaJiYmcPOPh7t27mD9/Pg4fPlzvdYWFhSEmJkYHWRHCT8riIJFIdNLZzZgxQ6NBJlq1alXvbWmDTlAQwiNSuRwSHj+CoD6o2BHCIy3efBPNRo/mOg2jRGdjCeERsUQCMT2uQCXq7AghgmCUnd26devo2aaEGIi7uzuAZ9cM1nTphqZOnTqFO/W4BEZfjLKzW7t2bZWH7tZV586dMX36dFhbWyMyMlIHmRHCHx4eHjhy5AiuXr0KAHj48CHeeuuteq83NjYW+/btq/d6dM0oi50uLFu2DKdOncKYMWMgl8tx8uRJox0qmhBDk0gk2Lt3L/r06VM5zc7ODuvXr8fQoUM5zEx/eFnsBgwYgGnTplW7invKlCkYMmQIR1kRYjwGDx6M8PBwla99+umnBs7GMIzymF19ja7h1PucOXPg4OBgwGy40a5dO+Tn53OdBjFSjRo1UvtaYGAgRCKR0T4lrK54WeysrKzUvubl5cXbNv1FBw4c4DoFk6NQKNCnTx+TvevG3MYGTKFA2Wuv1Tifm5ub2teSk5N5V+gAnha7M2fOqB08cPny5Vi0aJGBMyKmYtOmTUZ5JlHXpFIpoqOj4eXlVe01Pg71pcT54990HTKZjMXFxVV7BN6NGzeYpaUl5/lRUBhDBAUFsUuXLlV+P8rLy9mcOXOYSCTiPDc9BecJ6CWsra3ZsmXL2NOnT1lBQQFbsWIFs7W15TwvCgpjCjMzM9a2bVt248YN9tZbb3Gej56D8wT0GhMnTmQHDhzgPA8KCn2HWCplFnX8g3727Fk2ZMgQzt+DXj8fEEJ4oemwYQifMoXrNIwWFTtCeCKgVy+k/PEH12kYLSp2hPBAw7AwyJ2c8ICKnVpU7AjhgeZjx+LmTz+hoqSE61SMFhU7QkycR/v2cAoJwc3du7lOxahRsSPEhEnlcrSfNg2xa9agNC+P63SMGhU7QkxY+w8+QM79+7h98CDXqRg9Xt4uRohQZCclIeHgQYCH97LqGhU7QkzYdQ2ew0yeod1YQrTkFBwMFw2ei0qMCxU7QjTk0KgRIj/7DP3Xr4dDYKDBt2/n7Y3IRYsgs7c3+Lb5gHZjCamFQ6NGaD52LHwjI4EXRr82BJmdHUJffx0hgwfj5u7dKMnJMXgOfEDFjhA1OC1yIhEahoYioFcvBPTujUexsTj41lvITkoybB48QsWOCJdIBEt7e0hkMpjb2FROtvPygn/37vDq2FFtkXNs3Bj+PXtWmVacnV3ZdeU/eoSS3FxYNWxY425ncVYWCp4+rTKtdVQUAl95BSKRCIm//orDkyYh6969ur5L8i8qdkSQ+qxaBaeQEEhkMpTm51deuiE2M4OZTAaRuObD2Y369EGjF0bDLi8qQnF2NgAg4fBhxG3ahA4zZsAlLEzteh5fvYpfP/qoyrQH588j+cwZZNy6BaZQ1OXtERWo2BFBuvDNNygrKED+o0dQVFRUeU0skcC/Rw+0ePNN2Hh4qFz+r5Ur8c9PP9W6nRMzZ2qd29Nr17RehtSOzsYS3rKwtcVLM2dikIpr0TJu3UJuSkq1QgcAivJy3PnlF/w8ahTOLlqEvIcPDZEu0TMqdoSXvCIiMHj7dljY2SFmxow6rYOKHr/QbizhF5EIraOiEDRgAM5FRyP59Ol6r1JZ9O7FxFTu3hLTQ8WO8IZILEbExx+jYWgoDo4fj7xHj3S6/sqid+IELOnCXpNDxY7wRvvp0+HUuDGO/Oc/lWdF9UFRVlbtchFi/OiYHeEFsUQCS3t7HP/gA70WOmK6qLMjvKAoL8fJ2bO5ToMYMersCCGCQMWOECIIVOyIyRJLJOg4ezbMzM25ToWYACp2xGT5dO4M5yZNUFFWxnUqxARQsSMmq1GfPkg4fJiev0A0QsWOmCSJpSXc27RB4q+/cp0KMRFU7IhJcmnWDHmPHtHFvURjVOyISXIMCkL6zZtcp0FMCBU7YpJsvbyQc/8+12kQE0LFjpgkSwcHFKalcZ0GMSFU7IhJenz5MjJu3+Y6DWJC6N5YYpKub9vGdQrExFBnRwgRBCp2hBBBoGJHCBEEKnbEJL08dy6cmzThOg1iQqjYEZNk6+0NS0dHrtMgJoSKHSFEEKjYEUIEga6zIwbTtWtXDBkyBBYWFjh+/Dh27doFRsMzEQOhYkcMIjo6GjNnzoRIJAIAjB8/HqNGjcLgwYNRUVHBcXZECGg3luhd9+7dMWvWrMpCp/Tqq69iypQpHGVFhIb3nV1paSk6deqEu3fvcp2KYDk7O6t9LTo6uk4FT+7sjNJ+/VBeVFSf1Mi/nJ2dUV5eznUaeiUCwOuDJmZmZmjdujXtKnFo4cKF6Nevn8rXbt++jVGjRmm9zibDhuHh+fPIefCgvukRAHK5HOfPn+d9wWMUFPqMMWPGMHW+/PJLzvOjEExwngAFz0MsFrOjR49WK3S3bt1iNjY2nOdHIYwwA7AAhOgRYww7duxAfn4+goODoVAo8O2332L06NHIy8vjOj0iEFTsiEEoFAr88ccfkEgkyMnJwTvvvIPS0lKu0yICQpeeEJPU/oMP4Ni4MddpEBNCxY6YJKeQEFi5uHCdBjEhVOwIIYJAxY4QIghU7AghgkDFjhAiCFTsCCGCwPuBAIhxadiwIfz9/WFpaYkiDW/iN7dG58IxAAAGSklEQVS2xkvPDQ8FADI7O4S89hoCevasnJYaG4tb+/bpPGfCD1TsiEFdvXoVgwYNQkpKCn744QesWbOm1hFpSvPzAQC+XbtWmW7j4fH//2EM17du1Xm+hD9oN5YY1NatW9GoUSP07NkTtra2iIuLQ0xMDIYOHQqJRP3f3qs//ACmUKh9/f7Zs0iPj9dHyoQnqNgRTsTGxiIqKgp+fn749ddfsXz5cty+fRuRkZEq589OSkLSqVOqV8YY4jZv1mO2hA+o2BFONWnSBC1btoSjoyPi4uLw6NEjtfOq6+6oqyOaoGJHDM7a2hqTJk3C1atXsWvXLiQmJiIkJASDBg1CfA1FKzspCUm//VZ1InV1REN0goIYTOPGjTF+/HhMnDgRiYmJWL16NX788UeNz8oCwNUNG+DbpQtE4md/p5PPnKGujmiEOjuiV2KxGN27d8fBgwcRFxcHd3d3dO/eHW3atMH333+vVaEDXujuGMO1LVt0nzThLc5HEKXgX7i4uLBZs2axpKQklpCQwGbNmsUcHR11su4Gvr5s3NmzrOuSJZy/TwqTCs4ToOBZtGnThpWUlLDc3Fw2dOhQJhKJdL6NLp99xpyCgzl/rxSmEzRSMdG5J0+eID4+Hp6envjPf/4Db29vPHjwAE+ePNHZNlIvXkReaqrO1keEgfOKS8HfCAoKYtHR0SwzM5NdunSJTZo0iVlaWnKeF4Ugg/MEKAQQNjY2bNKkSSwuLo49efKERUdHM19fX87zohBUcJ4AhcCidevWbMuWLay4uJjFxMSw/v376+W4HgXFC8F5AhQCDTc3NzZv3jyWkpLCbt26xaZNm8asra05z4uCt8F5AhQCj44dO7KkpCRWUVHB3njjDc7zoeBtcJ4AhQDDwsKCDR06lJ07d45lZ2eztWvXspCQEM7zouB1cJ4AhYAiICCARUdHs7S0NBYbG8smTZrE5HI553lRCCI4T4CC5yEWi1n37t3Zrl27WGFhIdu1axfr3r0753lRCC44T4CCp9GgQQM2depUdu/ePZaSksIWLFjAnJ2dOc+LQrDBeQIUPAtnZ2e2efNmVlhYyH755RfWv39/JhaLOc+LQthBo54QnbO2tkbjxo2hUCiQkJCAhIQEKGoYUp0QQ6BiR3QuMTERHTp0QKdOnWBhYYFLly7h999/x9ChQyGVSrlOjwgY5+0lBb/D1taWTZo0id24cYOlpqay6Oho5uXlxXleFIILzhOgEEiIRKLKs7LFxcXs4MGDrHv37nSrGIWhgvMEKAQY7u7ubNasWSwlJYXFx8ezWbNmMXt7e87zouB1cJ4AhYDDwsKCjRo1iiUlJbGcnBw2YMAAznOi4GfQA3cIZywsLDBkyBC8++67sLe3x5YtW3Dp0iWu0yI8RcWOGJy7uzveeOMNTJkyBfn5+di4cSP69u2L7OxsrlMjPMd5e0khjOjYsSOdnKDgLKizI3pla2uLESNG4L333oOjoyM2b96MwMBAPHjwgOvUiABxXnEp+BfBwcFs5cqVLD8/n126dImNGTOGSaVSzvOiEHRwngAFz6Jdu3aMMcZyc3NZ//79Oc+HggKgRykSPXj48CEOHToECwsLLFy4EJGRkSguLsbt27fpHlnCGRGeVT1C9MLZ2RlvvfUWoqKiwBjD2rVrsW7dOmRmZnKdGhEYKnbEIMzMzNC3b1989tlnyMjIQLdu3bhOiQgMnY0lBlFRUYGDBw8iNDQUgYGBXKdDBIiGeCKECAIVO0KIINBuLKkTW1tbmJmZab2cpaUlzM3NYW9vX6ftZmVl1Wk5QugEBdGam5sbkpOTDT7qMGMMHTt2xB9//GHQ7RJ+oGJHCBEEOmZHCBEEKnaEEEGgYkcIEQQqdoQQQaBiRwgRBLrOjuhEQEAAvv322zpde6cKYwwLFy7EuXPndLI+QqjYEZ14/Pgxdu3aBYlEN79SCoUCd+7c0cm6CAHoOjtCiEDQMTtCiCBQsSOECAIVO0KIIFCxI4QIAp2NJXrj6OiIgQMHanQ5yvHjx5GUlKT/pIhgUbEjeuPj44Nhw4ZBLK59ByI1NZWKHdEruvSEECIIdMyOECIIVOwIIYJAxY4QIghU7AghgkDFjhAiCFTsCCGCQMWOECIIVOwIIYJAxY4QIghU7AghgvB/CK39Ndl4CCkAAAAASUVORK5CYII=;" vertex="1" parent="1">
          <mxGeometry x="80" y="30" width="231.32" height="340" as="geometry" />
        </mxCell>
        <mxCell id="4me7HTS10782GKuPLDVr-2" value="" style="shape=image;verticalLabelPosition=bottom;labelBackgroundColor=default;verticalAlign=top;aspect=fixed;imageAspect=0;image=data:image/png,iVBORw0KGgoAAAANSUhEUgAAAkEAAAKGCAYAAABN6U+hAAAABHNCSVQICAgIfAhkiAAAABl0RVh0U29mdHdhcmUAZ25vbWUtc2NyZWVuc2hvdO8Dvz4AAAAqdEVYdENyZWF0aW9uIFRpbWUAU2F0IDI1IE9jdCAyMDI1IDAwOjA3OjQyIEJTVIq76tcAACAASURBVHic7N13WFPX/wfwdxJIGGGKigq4xYEDN4oLUdyLgtSq1NnWVq21bkSt1Kq135+1VVuVauu2dYtiRQWcdSviArROcCOCzCS/PyipFJAASS6Q9+t5fB6999xzPqkV3px77rkiACoQERERGRix0AUQERERCYEhiIiIiAwSQxAREREZJIYgIiIiMkgMQURERGSQGIKIiIjIIDEEERERkUFiCCIiIiKDxBBEREREBokhiIiIiAwSQxAREREZJIYgIiIiMkgMQURERGSQGIKIiIjIIDEEERERkUFiCCIiIiKDxBBEREREBokhiIiIiAwSQxAREREZJIYgIiIiMkgMQURERGSQGIKIiIjIIDEEERERkUFiCCIiIiKDxBBEREREBokhiIiIiAwSQxAREREZJIYgIiIiMkgMQURERGSQGIKIiIjIIBmdO3dO6BqIiEggqampCAgIQEREhNClEOmdSKVSqYQugoiIhPP777/D19dX6DKI9M5o1apVQtdAREQC6N69O2rUqAEjIyOhSyEShNFHH30kdA1ERCSAHTt2oEaNGkKXQSQYLowmIiIig8QQRERERAaJIYiIiIgMEkMQERERGSSGICIiIjJIDEFERERkkBiCiIiIyCAxBBEREZFBYggiIoPQtm1b3LhxA++//36BbXr16oUbN26gRYsWcHNzw40bN3Djxg00b9483/bNmjVTt5FKpboqnYh0hCGIiAzC2bNnIZfLMWbMmALbjB07FjKZDBcuXIC5uTmcnZ3h7OwMPz+/fNt/8MEH6jZiMb+cEpU1/FdLRAZBoVBg3bp16NSpExwcHPKct7OzQ69evRAcHIy33yt98eJF+Pj45GkvEong6+uL2NhYndZNRLrDEEREBuOXX36BSCTK95bYBx98ALFYjLVr1+Y6vmXLFtSoUQMtW7bMddzNzQ2VK1fGzp07dVozEekOQxARGYzbt28jPDwcQ4cOzXPO398foaGhePjwYa7jp06dwv379+Hr65vruJ+fH0JCQpCUlKTTmolIdxiCiMigBAcHo0mTJnBxcVEfa9y4MVxdXbF69eo87VUqFbZt25brlphYLIaPjw82b96sl5qJSDcYgojIoGzfvh2JiYm5ZoP8/f2RkJCAkJCQfK/57y2xzp07Qy6XF9ieiMoGhiAiMihpaWnYtGkThgwZApFIBIlEgg8++ADr1q1DVlZWvtecO3cOcXFx6ltifn5+2LVrF1JTU/VZOhFpGUMQERmc4OBgODo6omPHjvDy8kLlypURHBz8zmtybokZGxtj0KBBvBVGVA4wBBGRwblw4QIuXboEHx8f+Pn5ITw8vNBH3XNuiU2bNg0AcOjQIX2USkQ6ZCR0AUREQggODsbMmTNhZmaGcePGFdr+ypUruHHjBgICArBu3TpkZmbqoUoi0iXOBBGRQdq4cSNsbGygVCqxY8cOja7ZunUrZDIZtmzZouPqiEgfRABUhbYiIqJyZ8eOHRg4cCB27tyJQYMGCV0Okd5xJoiIiIgMEkMQEVE+pFIpJBKJ0GUQkQ4xBBER5eOnn37ClClThC6DiHSIIYiIKB/m5uYwNzcXugwi0iGGICIiIjJIDEFERERkkBiCiIiIyCAxBBEREZFBYggiIiIig8QQRERERAaJIYiIiIgMEkMQERERGSSGICIiIjJIDEFERERkkBiCiIiIyCAxBBEREZFBMhK6gOKSSqWYMmUKnJychC6lXFGpVDhy5Ai2bdsmdClEuYSGhmLRokU4evSo0KUQUTlRZkNQ3759ERQUJHQZ5dKYMWNw4MABvH79WuhSiNScnJxQqVIlocsgonKkzIYgc3Nz9e+jY54IWEn5ITeTono1a4jFYpiamjIEERFRuVZmQ9DbfCZsFrqEcsG9ZXWsmj9A6DKIiIj0ggujiYjeIhaLMWLECLRv3x4DBw5Ev379hC6JiHSEIYiI6C3btm3DypUrUa1aNTRq1Ah//PEHvvrqK6HLIiIdYAgiIvqHu7s7+vXrB5lMpj5mbGyMWbNmwd7eXsDKiEgXysWaICIqH3766Sfs378fe/bsyXOuWrVqCA4OxsqVK3U2vomJCYyM8n5ZFIlEiImJQWZmZrH7Njc3x+XLl9G6deuSlEhEWsQQRESlRv369REdHZ3vuadPn2LLli0IDw/X2fheXl4YP358rpkgAFAoFAgMDERUVFSx+/7ll19gbW1d0hKJSIsYgoioTMjIyEBUVBTCwsJ0NsbVq1cxbty4XMeUSiUSEhKwcuVKpKWlFbvvlJQUiESikpZIRFrENUFERP9ISEiAr68vkpOTkZaWhoyMDDx58gQDBgwoUQAiotKJM0FERG8JCQmBo6Mj3NzckJqaijNnzuDNmzdCl0VEOsAQRERlws6dOwtcL6RtiYmJOHDggF7GIiLhMAQRUZkwa9YsoUsgonKGa4KIiIjIIDEEERERkUFiCCIiIiKDxBBEREREBokhiIiIiAwSnw4jItICc3Nz1K9fv8DzZmZmEIlEaNGiRYFtHjx4gMePH+uiPCLKB0MQERkcCwsLfPbZZ/Dx8YGbmxvS09NL3Ke/vz+WL19eaLtz584VeG7z5s0YMmRIiWshIs3wdhgRlQlLly5Fs2bNStSHlZUVZs+ejYcPH2Lu3LlwdXWFmZmZVupbsWIFRCJRvr9q1qwJlUoFAOjYsWOB7RiAiPSLIYiIyoTu3bvD2dm5WNdaWFhg+vTpePDgAWbMmAELCwtIpVItV1iwqVOnAgBUKhUCAwP1Ni4RvRtvhxFRuVWhQgVMmDABkydPhkQigYmJiSA1jBw5Uv0GeQ8PD7i6uuLixYt6r4WIcuNMEBGVO3Z2dpg3bx7u3buHadOmwdzcXJAABABffPGF+lYYACgUCr4ChKiU4EwQEZUbFStWxPjx4/Hll19CLBZDJpMJWo+FhQUmTpyYK4AZGxtj4MCBqFu3LmJiYgSsjog4E0REZV6lSpWwePFiPHjwAFOmTIGpqangAQgAPv74Y0gkkjzHs7KyMG3aNAEqIqK3MQQRUZnl6OiIH3/8Effv38f48eMhlUoFu+31XzKZDNOmTcu3HqlUCn9/f1StWlWAyogoB2+HUb5+//13ZGRkCF0GlVJGRkZo1KhRvrMcxfHixQv8/fffaNKkCc6fP59vm4oVK2LWrFkYPXo0AMDJyQl169aFSqWCWFz8n+d27tyJzMzMPMerVKmC77//HqtXry5Wv8OHD4dcLi/wfFZWFiZNmoQpU6YUq38iKjmGIMpXZGQkkpOThS6DSimJRILk5GSthaBHjx4hJiYGtWrVwqtXr/Jtk5aWhqioKFy5cgUAUKdOHVSoUAHW1tZQqVTqp6+KKjw8HKmpqXmOv//++8V+JF8ikWD27NnvvCVnYmKCzz77DAsWLMDLly+LNQ4RlQxDEOXrhx9+wJMnT4QugwxMz549CwwEr1+/xp49e7B161b1sbFjx6JPnz745ptv4OzsDLFYXORZoe+//z7fMZs3b55vONKEt7c3KleurFHbTz/9FEFBQcUah4hKhmuCiKjMUqlU2Lt3L1xcXNCzZ09ERUUhKysLSqVS0LoCAwNhbGxcaDsTExNMnToV5ubmeqiKiP6LIYiIyoWwsDA0a9YMPXv2xOXLl6FQKKBQKPReR87O1prenjM2NsbIkSN1XBUR5YchiIjKlbCwMDRv3hydO3fG6dOn9R6G5syZU6T1SSYmJggICNDrazyIKBtDEBGVS8ePH4e7uzs6d+6MI0eO6CUMtWrVCm3bti3ygnErKyv4+fnpqCoiKghDEBGVa8ePH0f37t3RqVMndRjKysrSyVhz5swpVtCSyWSYN29eiR71J6Ki4784IioTgoKCcOzYsWJff+LECXTv3h3u7u6IiIjI9T4vbWjQoAF69eql0YLo/FSvXh39+vXTak1E9G58RJ6IyoRNmzZppZ/Tp0/D09MTLVu2xKBBg5CUlKSVfl1dXZGSklLgeiBTU1MAKPCxe5VKBVdXV+zatUsr9RBR4RiCiMggnTt3DufOndNaf5s2bXpnULt+/TpEIhHq16+vtTGJqGR4O4yIiIgMEkMQERERGSSGICIiIjJIDEFERERkkBiCiIiIyCAxBBEREZFBYggiojLhyJEj6Nq1q9BlEFE5wn2CiKhMsLe3h52dnV7GsrGxgb29PTIyMmBqalrgBodEVLZxJoiI6C3e3t548OAB2rdvj/fffx9///033NzchC6LiHSAIYiI6B+Ojo7YuHEjzMzMIJFIIJFIULFiRezevRsmJiZCl0dEWsbbYURUJlhZWWHIkCFwdXXV2RhNmjTJ8yZ3kUiEChUqIDg4GPfv3y9235UqVeJtNaJShiGIiEqN3377DRcuXMj3nJGRESpVqoT09HSdjV+lSpU8IQjIfrmpk5NTsd8QDwAJCQmIjY0tSXlEpGUMQURUavzyyy8Fnnv+/DmWLl2KrVu36mx8Nzc3REZG5jmuUqkwePBgPHr0SGdjE5H+MQQREf3j1KlT2LJlC3x8fCCTyQAAWVlZmDNnDgOQltnY2GDMmDHo0KEDbGxs8OjRI4SFhWHjxo1ISUnJ1XbcuHGoVq0aZs2alW9fS5cuxblz57BhwwYMHToU7u7u7xz79u3bWLx4ca5jMpkMy5Ytw/z58/HgwYOSfTgqM7gwmoh0auXKlTh48KDQZWhs+PDh+PjjjxEfH48bN25gwIABWLBggdBllSudO3dGbGws5syZg8zMTFy8eBHm5uZYvnw5rl69iqZNm+Zq36tXL3zwwQcF9jd69Gh07twZAFCjRg20bNlS/cvPzw8ffvhhrmMNGjTIdb1YLMaaNWswduxYWFtba/3zUunFmSAi0ilHR0fUrl1b6DIKZGtri27dusHDwwNNmzaFs7Oz+hthlSpVsG/fPrx8+RI3btzAlStXcOTIERw6dAgvX74UuPJsY8eOxahRoyCRSIp8bc7fS5cuXXDu3Lli1xAfH4+RI0fi6dOnhbatU6cO9uzZg+joaHh7e+eaYatXrx5CQkIQGhoKFxcXPH/+vMi1BAUFISgoSP3nffv2oX79+mjZsmW+7atVq4a1a9eiW7duRR6Lyj6GICIySPXq1cOsWbPg6+uLx48f4/Dhw/jtt99w8+ZNPHnyRH1LxtzcHJUqVYKzszNatmyJb7/9FpUqVcKWLVuwYMECxMTECPo5ZsyYgRo1apSoD2tra7Ro0aJEffTs2RO//fZboe3mzp0LiUSCAQMG4PHjx7nO3bp1C76+vjh37hymT5+OKVOmlKimwtStWxeXLl3CvXv3EBgYiK+++kqn41HpwxBERAZn+vTpmDt3Lvbu3YuuXbvi5MmThV5z+PBh9e/d3d3x+eef48qVK5gzZ06e9SX6ZGSU/WX8ypUruHbtmt7H9/X1hVgsVtfxLhKJBP369cO+ffvyBKAcFy9exMmTJ+Hr66vzEKRUKjFx4kT8+uuv8PLy0ulYVDoxBBFRmbB161ZERUWVuJ8FCxZg7Nix6NWrF44cOVKsPo4fP47jx4/D09MTW7duhaWlJQICAkpcW0mEhYVh5cqVeh/Xx8dH47bVq1eHhYVFoX+P58+fh7u7O8zMzPDmzZuSlliguLg4xMXF6ax/Kv0YgoioTJg3b16J+2jatCkmT54Md3d3nD17tsT9hYWFoVevXoiMjNRaSCvP5HI5AOD169fvbPfq1SsAgKWlpU5DEBFDEBHplUQiweDBg9G8eXMkJibi999/x82bNwFkrytxdnbO1T41NRU///wz+vbti6dPn+L06dPqcx4eHkhISMh1G6hGjRpwcnLKd78fLy8vHD16VCsBKMdff/2F8PBw9OjRgyGoEE+ePAEAVKhQ4Z3tKlWqBIVCoV5onZmZ+c6F3xKJBJmZmdorlAwGH5EnIr36+eefMXjwYFy+fBmpqak4cuSIelGuv78/2rdvDxMTE/WvnP16Ro0ahV27duX6Burr64vWrVur/1yzZk3s2bMHHh4e+Y6tUqkgEom0/plEIhFUKpXW+y1vEhISEBcXhy5duryzXZcuXXDmzBkoFAoAwMuXLwt8dN3c3BwmJial5mk9Kls4E0REeuXt7Y06deqoH39+/Pgx2rZti/PnzwMAQkJCsG7dunyvvXv3LpYvXw4/P78851q3bo3NmzfjypUrBY4dGhqKoKAgtGnTBn/99VfJPwyAdu3aoVOnTpg0aZJW+ivvVq9ejYULF6J3794ICQnJc97f3x/Ozs4YOXKk+lhUVBRGjBgBV1dXXLx4MVf7Dh06AMA7/96JCsKZICLSq9DQUOzevRujR49GjRo1sGHDBixfvlx93snJCc2aNVP/cnJyUp9buHAh6tevj/feey9Pv/fu3UOTJk0QERFR4NhRUVFYvHgxDhw4oJWngXr06IGQkBB88803iI6OLnF/huB///sfTp8+jW3btuHjjz+GmZkZAMDCwgJffvklVq9ejdDQ0FxB+Pfff0dKSgo2bNiAdu3aQSKRwMLCAr169cLKlSvx+PFj7N+/X6BPRGUZZ4KISK+GDh2K999/H/3798fChQsRFxcHf39/3LhxA0D200bt2rVTtz906BC+++47ANlrQz788EOEhITkCTsJCQkajT979my8evUKu3btwoEDB/D999+/Mzj9l0gkQufOnTFhwgR4eXlh1qxZ+L//+z+Nrzd0mZmZ8PT0xPLly/HDDz9g2bJlePnyJWxtbaFQKLBy5UpMnTo11+3FBw8ewNfXF+vXr8eJEyegVCrVL7r9+++/0adPHyQlJQn1kagMYwgiIr2xtLSEs7MzNmzYgA0bNkAikWDmzJn48ccf4enpCQD47rvvCrwdBgCXLl3CqlWrsGLFimLtKAwAS5Yswa5duzBjxgzs378fiYmJOHToEM6fP48bN27g2bNn6ieUrKysULFiRdSvXx8tWrRAt27dYGlpic2bN6Nx48Z8xLoYUlJS8OGHH2LWrFlo164dKleujPj4eISHhxf4d7p//35Uq1YNXbp0QfXq1aFUKhEbG4uIiAj12qH8zJgxQz3b9C6nTp1Cly5dcOfOnWJ/Lip7GIKISKf69Omj/r2NjQ0OHjyIWrVqITExEQqFAidPnkTPnj2L1OeCBQtw5swZtG7dOtfTYkURGxuLUaNGYdKkSfD09ISnpyd8fX1Rt25dVK5cOVfbhIQExMTEICoqCp9++ikOHz7MmQctePjwIX7//XeN26elpeHAgQNFGkPTJ/aeP3+O8PDwIvVNZR9DEBHpzd27d7Fs2TJcvnwZYWFhEIlE8PLywocffqhu88knn6BHjx65rvvoo49y/TkzMxP+/v4let9VjqSkJOzYsQM7duzIdXz79u2IjY3FtGnTSjwGkSZMTEyQmZn5zpkt0i6GICLSq7lz52L9+vVo3rw5lEolpk2bpt4P5quvvkKlSpXyXJOamoqAgADEx8erj125cgWtWrXK8/qFP/74Q6NXOBSkZs2amDVrFrp06YI2bdpAJBJh4cKFePHiRZ62devWxYwZM+Dq6orU1FRERERg0aJFSExMLPb4ZHh8fX0xZ84cODs7IzMzE8ePH8eUKVNw6dIloUsr9xiCiEjvCnpdwbVr1wp8/9XVq1fzHLt8+XKeYw8ePCh2XW3btkV4eLh6byIbGxtMmTIF/v7+aN68OR4+fKhu26lTJ/z555+QSqXqRbxubm4YPnw4mjdvXuC7sYjeNmnSJPzvf/9T/1kikcDT0xOnT59G+/bt1VtHkG7wEXkiImS/iHTTpk2QSqV5zlWqVAmrVq1S/1kmk2Hjxo0wNjYGkP3EWM4mjFWrVsWKFSv0UzSVaQ4ODli4cGG+52QyGYKDg/VckeHhTBDlq2PHjpzSJ4Pi7OyMmjVrFni+Z8+e6Nu3L1JTU9G4cWNUq1atwLb9+/dHjx49kJWVpYtSc8mZtRJaw4YN1U/4kWa6du2ab+jO0bRpU/j6+uZ7K9bQVa1aFeHh4bh3716J+mEIonytXr2arwEgg5Izq1MQkUiE9evXQ6lUFtpWIpFg8+bNevk3ZGVlpfMx3iVnBuyTTz7JtcszFc7ExKTQNmvWrNFLmC5r5HI5tmzZguHDh5eoH4Ygypezs7P6ZYdEhqB27dqIjY3N95xKpUJKSgoqVqyIzMxMuLi4FPjotUqlQmJiIuzs7KBUKnVZMgDg/v37cHBw0Pk4BckJeuPHj8cvv/wiWB1lUceOHd+5UWdKSgoqVKjAl8PmY+/eveoNVkuCa4KIiJC9WHvnzp35nhOJRFi6dKn6m9HVq1cRGhpaYNvvvvtOLwGIyrZTp069c+HzqlWrGIB0jCGIiOgfY8aMwYkTJ/Ic37JlC+bNm5fr2IcffpjnJawqlQq//fZbgYtdid6WmZmJwYMH4/r163nO7dq1C9OnTxegKsPC22FERP94/vw5OnToAC8vLzRv3hwZGRmIjIzEmTNn8rR9/Pgx3NzcMGjQIPzxxx9YsGABduzYwUeaqUji4uLQtGlTLF68GJ9//jmA7F3WQ0JCBK7MMDAEERG9RaVSITQ0tMDbXf9te/DgQQBAcHAwbt++revyqBzKzMxEZGSkOgRFRkYKXJHh4O0wIiIiMkgMQURERGSQGIKIiIjIIDEEERERkUFiCCIiIiKDxBBEREREBokhiIiIiAwSQxARlSsikQjVq1cXugwiKgMYgoioXGnRogUuXbokdBlEVAZwx2giKleMjY1hbGwsdBl6N2rUKPj4+Oh9XLGYP0tT2cUQRERUhr18+RIODg6wsrKClZWVYHW8ePFCsLHLA5VKle/vSbcYgoiIyjA/Pz/07t27WDMyw4YNQ6NGjRAdHY3169cXu4bHjx9j7969xb6egLNnz+LevXu4fv06kpOThS7HYDAEEREVU/fu3bFkyRIAwJ9//olp06Zh+/bteq3h2rVruHbtWrGubdOmDRo1aoRbt25h0aJFWq6MiuLhw4dc0C8A3swlIiqGDh06ICQkBC4uLgCA2rVrY/Pmzejfv7/AlRGRpjgTRERlkp2dHZ49e5bvOZFIhFq1aul0/Pnz50MikUAkEqmPGRsb4+uvv0ZUVFSJ+razs8PZs2e5NoRIxxiCiKjMcXR0RFxcHORyOTIyMnKdc3BwgJmZGeLi4gSprVGjRloZ28/PD1u3btVCRURUEN4OI6IyRyaTwdjYGEZGeX+Oe/DgAVJSUiASiXT6KyIiIt+Zmhs3bpSo38qVKwMA5HK5zv87Ehk6hiAiomJYsGABFApFrmMZGRmYP3++QBURUVExBBERFcOff/4Jf39/PH/+HADw6tUrfP7559i0aZPAlRGRprgmiIjKFX0uJt60aRM2bdqEChUqqMMQEZUdnAkionIlKioKH3/8sV7HZAAiKpsYgoioXElJScGGDRuELoOoSMRiMSZMmIA+ffoIXYpB4e0wIiIigXl4eOD7779HRkYGLCws8mz9QLrBmSAiIiKBWVhYAACkUilkMpnA1RgOhiAiIiIySAxBREREZJAYgoiIiMggcWE0EVEhjIyMIJVK8ebNG6305+PjU+ALXnNel9G3b1/Y2dnl20ahUGDDhg1ISEjQSj1EhoohiIioADKZDCNHjsScOXMQERGBwYMHa6XfTp06wdnZOd9zVlZWAIB27drB3Nw83zZKpRJHjhxhCCIqIYYgIipXGjRogP3796NmzZrF7sPExARjxozB7NmzIZfLYWpqqn56Rxs+++yzAs9t2rQJrVq1goWFBQYOHIjk5GStjUtEuXFNEBGVK9bW1qhYsWKxrpXJZBg7dizu3buHxYsXo2LFijA1NdVyhQWzt7fHe++9BwCQSCQYPXq03sYmMkQMQURk8MzNzTFx4kQ8evQIy5YtQ8WKFWFiYqL3OqZMmQKlUgkAMDY2xsyZMyGVSvVeB5GhYAgiIoMll8sxceJE3Lt3D4sWLYKtra1gG9VZWVnh448/zjW+paUlhg4dKkg9RIaAIYiIDI6FhQWmT5+OR48e4ZtvvhE0/OSYOHEixOLcX5JlMhkCAwPzHCci7eC/LCIyGJaWlurwM2fOHFhYWOh1zU9BzMzM8MUXX+R7C65KlSoYNGiQAFURlX98Oozy1a9fP7x69Upr/b18+VJrfWkqLS0Nqampeh83MTERKpVKr2Ma0mctjgoVKmDChAmYPHkyjIyMBJ/1+a9Ro0YVWJOxsTHmz5+P7du3l4n/1kRlCUMQ5SsgIAAKhUKvY9rY2Oh1PCD7UejSMBNAmktKSlKHgfxuE1WrVg1mZmZ48eKF+pi1tTVEIlGJxvX09MzV59vMzMzg4OCAZ8+eFbnfnAXQBS3EFolEqF27Njw9PXHo0KEi90/6k56erpWF7ElJSSW6/tWrV7C2ti5xHYaAIYjy1bp1azx58kToMsotbXxTLiqhAl+1atVQvXp1rfSlUCgQExMDBwcH7Ny5U/0k1dsePXqEtLQ0dOvWTX2sbdu2+PTTT1GvXj0A2Y+fF9WZM2cwceLEPMfNzMwQGRkJS0vLYoWg999/v9AfACQSCebNm8cQVMqVlif5cjbcpMIxBBEJIDExUegS9Ob27ds4duyYVvt8138/lUoFpVKJ8+fPq4+dP38ey5cvh7u7OxYuXIi2bdsCKFoYSkpKytVnjpzXXBSHSCTC7NmzC/3mKRaL0bp1a7Rr1w4nT54s9nhElBsXRhORwTh+/Djc3d3RuXNnHDlyBAqFAllZWYLV07dvX1SvXl2jWUGVSoWAgAA9VEVkOBiCiMjgHD9+HN27d0fHjh1x5MgRKJVKZGZm6r2OwMBAjWejjIyM4OXlBRcXFx1XRWQ4GIKIyGCdPHkSXl5eaNGiBQ4cOACVSqW3MNSpUyc0a9asSHsAZWVlYebMmTqsisiwMAQRkcG7dOkS+vfvj2bNmqkXXOs6DAUGBhb5kXepVApfX1/UqFFDN0URGRiGICIqV7Kysoq9vcOVK1cwePBg/0x4NQAAIABJREFUuLq6Yt++fVAqlcjIyNByhUDTpk3RuXNnGBkV/dkUhUKBqVOnar0mIkPEEERE5cr58+fRrl27EvVx5coVDBo0CE2aNMGePXugVCq1um/WrFmzin2tVCrFqFGjULFiRa3VQ2So+Ig8EZUrSqUS0dHRWukrOjoaPj4+qFevXrFmbQpy8+ZN7N27N99zMpkMPXr0wMWLF3Hv3r1822RlZZW6Xa+JyiKGICKiQty6dUur/c2ePbvAc5UqVcLjx4+xfPlyBAcHa3VcIsqNt8OIiIjIIDEEERERCaigpwT5wlzd4+0wIiIigbx+/Rq3b99GSkoKUlJS1C8/lcvlkMvlqFOnToEv16WSYwgiIiLSg9TUVBw/fhxHjx7FqVOncPPmTcTHx7/zGpFIBCcnJ9SvXx/t27eHh4cH2rRpo9WF+mWRRCKBubk5JBJJiZ7cNOz/ikRERDqgUqkgEomQmZmJkJAQ/Pbbb9i/fz/S09OL3M/du3dx9+5dHDx4EIGBgbC0tMSgQYMwbNgwdO7cGWKxWD2eoahXrx569uyJSZMm4fDhw1i2bBkOHTpU5H64JoiIyhWRSIR69eoJXQYZmJwAkrOOJykpCUFBQahWrRoGDhyInTt3FjkAFSQpKQnr1q1D165dUadOHaxYsUK9qaehrCNq2LAhqlatim7duiEmJga7du3C5s2bYWpqWqR+GIKIqFxp2bIlzpw5I3QZZEBq1qyJo0ePAgDS09Mxd+5cODk5Yfbs2Xj69KlOx75z5w4+/fRT1KxZEytXroRSqQQAbNmyBba2tjodW0gZGRmIj4/HiRMn8MUXX6BRo0Zo2LAhdu/eXaRbhQxBRFSuGBkZ6W29hKmpKUaOHAkA8Pf3h6WlpV7GpdJj0KBBuHDhAjp16oSQkBA0atQI8+bNQ1JSkl7riI+Px7hx49C2bVucPXsWgwcPxsWLF+Hm5qbXOoTy999/w9PTE3Xr1sX06dM1vo4hiIioGGxsbHD9+nUsWrQIADB16lTExsbCwcFB4MpIH0QiEb799lts374dMpkMY8eORZ8+fXD79m1B6zp37hzc3NwQFBQEBwcHREREYNy4cYLWpC9Pnz7F+PHjMXXqVI1nwRiCiIiKISgoCPb29urHl01MTGBlZYVly5YJXBnpmrGxMdavX48vv/wSt27dQps2bbB69Wqhy1JTKBSYPXs2evTogcTERCxfvhxfffWV0GXpxb59+5CQkIC+fftq1J5PhxFRmZOz+DO/RaCVKlWCqakpzp07p9MaXFxc8ry/SyqVol+/fiUaO+dWXtWqVUtUH+mGTCbDzp070bNnT5w5cwa9e/fGs2fPhC4rX4cOHYK7uztCQ0Mxe/ZsVKhQAZ999lm5XzwdFhaG9u3b49dffy20LUMQEZU5d+7cQa9evZCamprnXGJiIjIzM7Fq1Sqd1jBnzpx8g0pKSkqJxhaJROjevbtGX8BJv8RiMdavX4+ePXvi0KFDGDRoEJKTk4Uu651u3bqF9u3b4+DBgxg3bhwSExMxa9YsocvSqQcPHmi8FoohiIjKHKVSiQMHDuR7LiMjA1lZWToPQVWqVMH06dNz7eabnp6OTZs2lXjsn3/+uaTlkQ788MMP8PHxwcmTJzFgwAC8efNG6JI0Eh8fj+7du+PEiROYOXMmEhIS8MMPPwhdls6Ym5trHE65JoiIqBgWLVqE06dPq/dnycjIQHR0NGbMmCFwZaQLI0eOxLhx4xAdHY2+ffuWmQCUIyEhAV5eXnjy5An+7//+Dx07dhS6JJ1p1KiRxgvUGYKIiIohLS0NHh4eGDx4MABg3LhxaNOmDRITEwWujLStUaNG+OGHH/D69Wt4e3vjxYsXQpdULLGxsfD19QUAbN26Ffb29gJXpH22trbw9PQscKb4vxiCiIiKSaVSISwsDABw9OhRZGVlCVwRaZtUKsWWLVtgZmaGUaNG4ebNm0KXVCIRERGYO3cu7O3tdX7LWAhz5sxBdHQ0Tpw4oVF7hiAiIqICTJo0CS4uLggODsbvv/8udDlasWDBAkRGRqJv374YMGCA0OVozdChQzF27NgiPQHHEERE5YpKpSr3jwCTfjg6OiIgIAAvXrwo0i7EpZ1SqcS4ceOQmZmJ77//Hubm5kKXVCJWVlb49ttvsXr1anz44Yc4e/asxtcyBBFRuXLlyhWMGjVK6DKoHJg/fz7kcjmmTp1aavcCKq7o6GgsXboUTk5OGD9+vNDlFFn37t3x3XffYffu3Xjw4AE8PDzg4eGBrVu3FqkfhiAiKjIrK6tCF1WamZnB3t4eEokEcrkc9vb2sLOzK7C9iYkJ7O3tS/zSxzdv3mDbtm0l6oPIyckJQ4YMwc2bN7F27Vqhy9GJr7/+GomJiZg8eTLkcrnQ5RSJo6MjGjZsiPr160Mul+PWrVt4+PBhkfthCCKiIhs5ciTi4+PRrl27AtusXbsWFy9ehEgkwvTp0xEfH4+HDx/C2to63/bz5s1DfHw89u/fr6uyiTQ2bdo0GBsbY+HCheo3s5c3r169wsqVK2FnZ1fmZk+Dg4PRs2dPODs7o0mTJrCwsFC/N60oGIKIqMjWr1+PjIwMfPDBB/met7a2Rr9+/bBu3Tr1E1MqlQoSiQT9+/fP9xpfX1+u5aFSQS6Xw9/fH/fv38fGjRuFLkenli5dirS0tDL9ktWoqCj07dsXq1atwt69e1GzZk2Nr2UIIqIie/bsGfbs2QNfX18YGxvnOT948GDIZDIEBwerjymVSoSHh8PHxydPezc3N1StWhUXLlzQad1EmvD29oa5uTl+/fVXZGZmCl2OTj158gT79u1DvXr10LZtW6HLKTaVSoWAgAAcPXq0SC8xZggiomIJDg6GnZ0dvLy88pzz9/dHREQEYmNjcx3funUrunXrlueW2ODBg3HgwAFuNEilwrBhwwBkz3gagt9++w3Av5+7LPvyyy/h5eWFJk2aaNSeIYiIiuXPP//E/fv3MXTo0FzH69WrBzc3N6xZsybPNdu3b4dIJMp1S0wsFsPHxwebN2/Wec1EhbG0tESnTp1w9uxZ3Lp1q8jXm5iY5PqV30zp24yMjHK1l0qlRR7TzMwMTZs2RYcOHVC7du0iXx8aGoqXL1+iX79+Rb62tLl79y6OHTum8WdhCCKiYlEqlVi3bh369esHCwsL9XF/f3+8fPkS27dvz3PNixcvEBYWluuWWMeOHWFlZYW9e/fqpW6id+nYsSOMjIzUO4EXRatWrZCamprrV0ZGBt68eYPDhw/n+76u7du352qfnp6OrKwsxMTEYP78+TAzMytwPCcnJ2zYsAHPnj3DpUuXEBkZidjYWNy8eRO9e/fWuO7MzExERETAwcEBdevWLfLnLm3Onj2L+vXra9SWb5EnomJbu3YtAgICMGjQIPz6668Qi8UYNmwYNmzYgLS0tHyv2bp1K1atWgVra2skJibCz88Pu3fvLnMvpKTyqUuXLgCyX4NSVK1atQIA7NixA9evXwcASCQSVKpUCe+//z4OHToEV1dXXLt2Ldc1L1++xIoVKwBkz4xaWVnB3d0dAQEB6NOnDzp27IjXr1/nGqtdu3bYt28fLC0tsXnzZuzbtw8vX75E48aNMWXKFOzZswfe3t7YtWuXRrUfOXIEAwYMQJcuXRATE1Pkz16aJCYmonHjxhq1ZQgiomK7c+cOjh49ig8++AC//vorunTpAkdHx3xvheXYuXMnfv75Z/Tv3x8bN26Et7c3Ro4cqceqiQrWunVrKJVKnDx5sljXAtnbPVy5ciXXue3btyMkJATDhg3DjBkzAAAODg6oUqUK9u3bh4CAgFztRSIRlixZgi+++AJz587F5MmT1eeqV6+Offv2QSqVwtPTE+Hh4epzf/75J3bt2oXz58/jxx9/xN69e6FQKAqtPTIyEgDQpk2bMv9OMXt7ezx58kSjtrwdRkQlEhwcDA8PD9jb22P48OE4c+ZMnm8Ab0tKSkJoaCh8fHzQtWtXSCQSHDx4UI8VExWsfv36uHv3LlJSUop8batWrfDmzRtER0fnOXf16lUAyPWKipyZozNnzuRpr1KpMGvWLDx//hz+/v4QiUTqcytWrICNjQ1GjBiRKwDliIuLw8aNG1GtWjW0bNlSo9pv3LgBhUIBZ2dnjdqXZh07dsS5c+c0assQREQlsmPHDiQlJWHw4MHo37//O2eBcuQ8JTZmzBhs374dGRkZeqiU6N1sbW1hZ2dXrDfFW1hYoH79+rhw4UK+My/e3t4A/p1xAf6dOcovBAFAWloazp49iwoVKsDJyQkA4OLigl69eiEyMvKdL3SdNm0abGxs8Ndff2lUf3p6Ou7du1fmQ1CbNm3QqFEj7N69W6P2vB1GRCWSlpaGTZs2Yc6cOTAyMsKWLVsKvWbPnj3IysqCt7c3unbtqocqiQqXs8leXFxcka9t0aIFxGIxnj17hs6dOwPIXg9kZ2cHDw8PjBw5Ehs2bMCOHTvU1+TMBL1r1uLFixcAsl9VAwB9+vQBAPzyyy/vrCc5ObnInyE2NhbdunWDpaUlkpKSiny90ExMTLB8+XKsWbMGDx480OgahiAiKrFVq1bBxcUFR48ezbOAE8heOxQREaH+c0pKCpYtW4YmTZrkms6/fPkyTE1N9VGy1uTcppDJZAJXQiWVEzRevnxZ5GtzZnUGDBiAAQMG5Dm/ceNGjBgxQv0KDpFIhJYtWyIuLg7Pnz8vsF8bGxsA2a+4ALLDFgCcOHGiyDUWJmefLgsLizIXgiwsLLBp0yaYmJhg+vTpGl/HEEREJXblyhX1T7/5CQ4OzrV7NAD14tC3vb34s6zhKz/KvpyXiBZnFiVnVmfYsGG53jhvaWmJrl27YuzYsTA3N8fAgQMBZO+nZWVlhQMHDryzX1dXVyQlJalfDprzEuL4+Pgi11iYnB9g3t7yorSrUKECBgwYgICAADx9+hTdu3fP9wexgjAEERFpQXp6utAlUAnlLFouzqLo1q1b48WLF9iwYUOec9u2bYO9vT0GDBiAFi1a4Pz584WuBwKAzp07w97eHn/88Ueud/AByLVQ+r/MzMxQp04dxMbGFmnribIUgoKCgjB27FjY2dlBJBJh/vz5CAoKKvL6Qi6MJiKda9OmzTu/aBOVBjnfQIu6a3OlSpXg5OSEs2fPFtjm9u3bAP6dycmZOSroGpFIhKCgIADA999/rz5+7949AECDBg0KHOujjz7C5cuXMX78+CJ8iuw1NQAK3OOrNFm3bh0mTpyIwMBAXLhwARMmTMCIESOK3A9DEBHplFQqxalTp1CrVi2hSyF6p+LOhBQ2q2NpaYl+/fohIyMDFy9eVF+jUCgKfGnwokWL0L59e2zYsAHHjx9XH8/ZyXrs2LH5Xufk5IRp06bh8ePH+Omnn4r0OXI+d1FuJwklNjYWmzdvRlBQEFq0aIGxY8di8eLF6uCoKYYgItIpsVgMkUgEiUQidClE71TcEJQzq3P58mX1O8BMTU1ha2uLrl274uDBg6hVqxZ++OEHPHnyBMbGxmjatCmuXbsGpVIJExMTWFlZoU6dOvDz80NERASmTJmCU6dO4eOPP8411rZt23Dz5k2MHj0aM2fOzPVusk6dOiEsLAx2dnYYMWKEejG1pnI+d3HWRAlt27Zt6Nq1KyZNmqTejkATXBNEREQEICEhAQDg6OhYpOtyZoL++OOPAtusXLlS/dRSkyZNYGJigsaNGyM1NTVP2/T0dCxduhQzZszIc2sqIyMD/fr1Q0hICL7++mtMnToVMTExqFatGqpUqYInT56gX79+hS64zo+TkxPS0tKK9XRcaXDu3DnMnDkTS5Yswb59+zRap8cQREREhOw3kKemphZ5w8DQ0NB8NyVUKpVISEhAWFiYek0QkB1k5s2bl6dtcnIyYmNjER4e/s5H1G/dugUXFxcMGTIEXbp0QcWKFRETE4Njx45h48aNxXq8XSQSoW7duoiJidHoNRul1cqVKxEQEIBu3bph3759hbZnCCIiIkJ2EImJiUHdunUhFovVe/oU5u2Fy5qIiopCVFRUcUpUS09Px9q1a7F27doS9ZPD0dERZmZmxdotuzTJyMhAaGgoPD09NQpBXBNERET0jytXrsDMzAwuLi5Cl6JXbdq0AYB3vvevrIiLi1O/ZqQwDEFERET/yNnZvEuXLgJXol8eHh4AgKNHjwpcSckVZeNShiAiIi3gjtHlw5EjRwD8GwoMhYeHB1JSUt65eWNZUatWLY3fHcYQRERUAtwEsny5ffs2YmNj4enpCUtLS6HL0QsXFxfUq1cP4eHhRd5xubQxNjaGl5cXDh8+rFF7hiAiIqK3bNy4EWZmZnjvvfeELkUvhg0bBiD7c5d1o0ePRmZmJg4ePKhRe4YgIiKit6xfvx4qlQr+/v5Cl6JzEokEQ4YMQVJSEnbv3i10OSXSuHFjLF68GNOnT9f41R8MQURERG+Ji4tDZGQkOnbsqN4Nurzy8/ODg4MDtm7dWqSXrZY2vXv3Rnh4ONasWVOkGS2GICIiov9YuHAhAGDmzJkCV6I7IpEI06dPh0KhwJIlS4Qup0gcHBzQp08fTJw4EZGRkdi2bRuCgoIwadKkIvXDzRKJDFCVKlUQHx8vdBlEpVZoaCjOnz+P/v37w9XVVf3i0/LE19cXLi4u2LRpE27duiV0OUUyadIkjBgxAlZWVhCLxVi7di1+/fXXIvfDmSAiA9O0aVNcv35d6DKISr3AwECIRCIsX74cYnH5+nYpl8vx7bffIiMjA1999ZXQ5RTZ5MmTYWtrC2tra3h7e8PFxQWXLl1Cy5Yti9RP+fpbJaJCyWQyyGQyocsgKvX279+PXbt2wc3NDSNGjBC6HK2aM2cOHB0d8d1335XpV2W8fv0aO3bsgJubG7Zu3Yo///wT9evX1/h6hiAiIqICTJgwAcnJyViyZAlq1qwpdDla0bZtW0ycOBH379/H119/LXQ5WqFQKDBlyhTs2rUL69ev13j/LoYgIiIt4I7R5dP9+/cxefJkWFtbY+vWrZBKpUKXVCK2trbYsmULJBIJRo4ciZSUFKFL0qovvvgCNWvWRP/+/TVqzxBERDrj7u6ufhfRzp070bdvX4Er0j7uGF3+rVq1Cps3b0arVq2wdOlSocspNmNjY2zevBnVq1fHvHnzEBYWJnRJWpeYmIitW7fCx8dHo/YMQUSkE61atcKRI0fQunVrAECDBg2wY8eOchmEqPz76KOPcO3aNXzyySeYNWuW0OUUmUgkwpo1a9C9e3eEhoYiKChI6JJ0JiIiAi1atNCoLR+RJyqnLCws8Pr163zPiUQi1KpVS6fjf/3115BIJOqnakQiEYyMjLBo0SJER0eXqG8zMzNER0fzFhTpzevXr9GjRw+cOHEC8+fPx/Pnz/HTTz8JXZZGRCIRlixZguHDh+PcuXPw9fWFUqkUuiydSUhIQOXKlTVqyxBEVA5VrlwZd+/eha2tbZ5dYO3t7SGTyRAXFydIbQ0aNNDK2MOHD8f69eu1UBGRZu7fvw8vLy8cO3YMK1asgLW1tXpTxdJKIpHg559/xqhRoxATE4PevXsX+MNReWFjY4OXL19q1JYhiKgcMjExgUwmg7GxcZ5zCQkJSEtLQ9WqVXVaw549e9C+ffs8a2bu3r0LV1fXYvdrY2ODuLg4yOXykpZIVGTXr19Hp06dEBoaim+++QZVq1bFF198gaysLKFLy8PCwgIbNmxAv379cOnSJfTq1QtPnjwRuiydc3V11fixf4YgIgOl6U9KxRUUFIR9+/bByOjfLzPp6ekICgoq0dhciExCi46ORps2bRAaGorx48ejTZs28PPzw507d4QuTa1hw4bYtm0bGjVqhPDwcAwYMACvXr0Suiydk0gk8PPzw7JlyzRqz4XRRKQTBw8exJgxY9RT72lpaQgMDERwcLDAlRGV3KNHj9ChQwds374drVu3xtmzZzFkyBChy4KRkREmT56M8+fPo2HDhvi///s/eHl5GUQAAoBx48bB0tISv/32m0btGYKISGfWrVsHKysrODo6Qi6XY/HixVzMTOXGq1ev8N5772H8+PEwNzfHxo0bcfjwYTRo0ECQetzd3XHhwgUsWbIEb968wcCBA/HFF18gIyNDkHr0rUePHli8eDE+/fRTJCcna3QNQxCRgbl27RomTpyot/FUKhUePHgAhUKhtzGJ9OnHH3+Ei4sLAMDDwwNXr17Ftm3b0LBhQ72M365dO+zduxeRkZFo3LgxgOwHEHbv3q2X8YVma2uLhQsXYteuXfjyyy+xc+dOja/lmiAiA5OcnIxVq1YJXUa5wxkuw/b2E49isRg+Pj7w9vZGSEgI1q1bh5CQEKSnp2ttPAsLC3h7e2PEiBHo2LFjnvPlfQH0Tz/9hLp168LY2Bht27bFpUuX0L17d0RGRhapH4YgIqIS4EJtKohYLEbfvn3Rt29fJCYmYvfu3Thy5AgOHz6Mhw8fFrm/unXrwsPDA127dkWfPn1gamqqg6rLBldXV6SkpOD333/HhAkTcPny5WL9IMIQREREpGNWVlbw9/eHv78/gOw9h27evImbN2/i7t27ePXqFZKSkqBQKGBsbAy5XA47OzvUqFED9erVQ8OGDVGxYkV1f4Y+8/jkyROcOnUKP/zwQ4n6YQgiIiLSsf/OGDo4OMDR0RGenp5a6Y+KhyGoGCzMZahe1RqWFjI8eZ6CuHvPYeChnIiIioAhpnRgCCqUCOlSC2RJTWBtJcd7PVzQxNkeEsm//wMnJqVhz+HrOH35fpF7b9GoGp4nvsHfDwvePE6kUsIo4w1kGckAmLaIiIi0gSGoEOlSOTJl5qhcQY4vR7kjI1OBzfsu4+adZ0hNz0LlCnJ4daiD4QNdIRKLcOriPY37trMxxyifFli56a93tlOJxMiUySESAdL08v3OFyqbxGIxjIyMtLYfSY8ePeDk5JTvOXNzcwBA586d3/nY/a5du8r9EzJEVDIMQYXIkmavvs8JOYvXHMOr12nq83cevMBPm89gon879POoj9MX70Ol4WxNYbOhIohy9ZVpbMoQRKWKkZERhgwZgq+++gpnz56Fj4+PVvp977330KxZs3zP5TwR06NHD9SuXTvfNgqFAlFRUQxBRPRODEGFUIkkcKpqjZoONtjxZ3SuAPS2XWHX4WhvBYlEhCxFdnDp6lYb7VtUR6UK5hABePT0NfYduYnLN+JRpaIFPvJrDQAY3LsJmjd6jl93XgAAeLSthS5ta6GCtRlep2Tgr8v3sefwdWRxrznSgrp16yIkJAT16tUrdh/GxsYYNmwY5s2bh4oVK0Imk+HWrVtaq3H06NEFnluzZg0aNmwIqVSKTp06ISUlRWvjEpFh4Y7RGmhQK/uxxCs3Egpsc/fhSxw//zeyFEoAQLf2dTCwe0OcvHAX364+huUb/0JGhgIj3msOuakUiUlpOHQiFgBw+tI9HDv3NwCgn0d9DOreCKcu3se3a45jz+HraNfcCSO8W+j2Q5LBsLGxgaOjY7GuNTY2xvDhw3H79m2sWLECDg4OkMlkWq6wYBUqVMDQoUMBZL8occyYMXobm4jKH84EacDGKnv6/cWr1FzHHe2tYCGXQQQR8M+trQfxr/AqOQ1WFiY4dCIWYSf/3UU0PSMLk0e6w6GqFW7EPcWtv58BAO4+TMTt+y9gbiqFZ/s6OHQyFvsjbgLIvt2W8iYDY/1awbGKNV6+jtfDJybKTSqVws/PDwsWLICdnZ1eg8/bJk2apP69sbExZs6ciRUrVpSKdyMZ+r4tRGURQ5AGcmZ3pMYS9e8BoHdnZzSpb5+r7S9/nMe5qw/xR+hVAIDcVIrKdnJUtpOjUd1KAAAjcf4TcLUcbWEkEUOlAlo3cVAfl0mz/5rqVLfFWe3dcSAqlEwmg7+/P4KCgmBhYQETExPBajE3N8eECRNyBTBLS0sMHToUv/zyi2B18VFnorKLIUgDz15krzmoUtECcfdfqI+v330JxvslAIBqlS3x6Qdt1OeqVrLEkL5NUMvRFllZSsQ/fY2Ep9lvtS3oa6bcTAoAaN6wChSK3OEq/slrKN4KYES6ZG5ujtGjRyMgIAByuVzQ8JPjk08+gbGxca5jMpkMgYGBWLduHZRK/vsgoqJhCNLApRsJ8OnpgvYtqucKQSmpGcA/d8is5P/+dCoRi/DpB22Qlp6FRasicT/hFZRKFWo52qJVk2oFjpOcmj2lv373JcTde5FvG7kWPg9RQeRyOUaNGoXAwECYm5sLdtvrv4yNjTF16tR8w1iVKlUwcOBAbN++XYDKiKgs48JoDSQmpSLizN9o28wRXd3yPpJrbCRG84ZV1X+2tDCBjZUpTl++j7uPEqFUZq8VaFA7e4G1SJw9FZRzPGdq6M69F8hSKNGmae5Fqy51K+N/M3uhXg07rX82IiA7/Hz++ee4f/8+Fi1aBFtb21ITgADA398flpaW+Z4zNjZGUFAQb0uR4LKysoQuAQDw6tUroUsoMzgTpKEdf0ZDbi6Ft1cjdGhZHdGxT5DyJhMVbMzgUrcyLMyluHQ9HtfjnuJNaiZevEpFhxbVkfD0Nd6kZqKJsz3aNssON6ay7Cn9lNQMqFRAd/c6qGBlivAzdxAaGYM+XZwhAnDl5mPYWpuiTxdnPHychNi7z2Gmp8978+ZNLvTUE5lMBlNTUyQlJWntlo74n3VnEokkzzl7e3vIZDK8ePHvbKO1tXWJQ0Tnzp1z9fk2ExMT1KhRo1j79ojFYsyePbvAUCYSiVC7dm14enri0KFDRe6fSFv+e7u2KNzd3XHs2DEkJyfD1tYWmZmZWqyMClLqQpBEIoGRkRHS09OFLiWXLIUSv/xxHn9deoC2zRzRqE4lmJtJkZySgaibCThx4R7uPPj3G8DyDacxsFtDDOnbFJmZCkTHPsHXK8PxXk8XWP5z6ywtPQtb919Bh1Y10NjHp2O0AAAgAElEQVTZHuFn7mB/xE28fJWKDq2qo0l9eyS/ycDJ8/dw4NgtKPUYSsaMGYPExES9jWfI5HI5atasiatXr2oteFauXBkbNmzId0flx48fIzMzE76+vupjbdu2xahRo+Dg4ACJRFKsQBQVFYVp06blOS6VShESEgJra+tihSBvb2/Y29u/s41EIsG8efMYgqjMOn78OPr164cHDx4wAOlRqQtBcrkcV69exZIlS/Dzzz8jLS3/zQmFEh37GNGxjwttF//0NVbk8zqMX/44n+vPkWf/RuTZv3MdO3XpHk5d0vz1G7oQGRnJ3XbLsOrVqxd4TqVSQalUIiwsTH0sLCwMQUFB8PT0xOLFi+Hi4gKxWJzvTFJBnj9/nqvPHCVdVB0YGFjoT9hisRitW7eGm5sbTp06VaLxiISyd+9eoUswOKVyTZCDgwOWLl2KmJgYTJw4UdAnU0Sq0vPEiYhPv5COhYWFoXnz5vDw8MBff/0FhULxzvdz6Vq3bt1Qv359jWamVCoVAgIC9FAVEZUXpTIE5SgNYcg4843exyyIcVbpqYXKt+PHj6N9+/bo3LkzwsPDBQtDc+bM0fjWnJGREXr06AEXFxcdV0VE5UWpDkE5hAxD0vRkSDOSBZ0REimVkGYkQ5qeLFgNZJiOHz8OT09PdOrUCUeOHIFCodDbEzCtWrWCm5tbkW7JZWVlYebMmTqsqmB8kICo7DHS1luftcXMrODnn3LC0JdffomIiAg9VaSCNP01395OBu3EiRPo3r073NzcMHfuXHh6ekKhUJToaZjCBAYGQqFQqJ9004RUKoWvry9mzpyJv//+W2e1vY2P5hOVXUb5Pc0hJE1+6nNwcICXl5ceqiEqfxQKRbEfxT916hS8vLzQqlUrzJ8/H926ddNJGHJ2dkavXr2KFIByZGVlYcqUKfj000+1WhMRlT9GLVu2FLqGXKysrN75aPa9e/fwv//9D8nJyVizZo0eKyMqHy5dugQPD48S9XH27Fn06NEDrq6umD9/Pnr37q3V11aU5JaWTCbD6NGjMXfuXDx9+lRrNRFR+VPqHpEvSE74yXlsfvjw4VrqWYRK1R1QsWpFKP5ZIqVSAZkKBV4mpuJ+gmY7b9rZmKNGNWtcuPbo352gtVWhSgmjjDeQZSQD4LoDKhmFQoG//sq7fUNxXLx4EX369IGLi4tWd5h+8uRJgY+6GxkZoU2bNoiLi0NCQkK+bdLT02Fubs4QRETvVOpDUE74+emnn3SygWK6VI66DWuiv2eDfM8/T3yDDbsv4eadZ+/sp0Htini/TxNELXiM9AztLhxVicTIlMkhEoFrk6hUunr1qlb7mzJlSoHnbG1t8fz5c3z33XdYuXKlVsclEpKVlRVSU1ORkZEhdCkGo9SGIF2HnxxZUlP17wOXHsbrN+kQAZBJjeBU1RreXg3xyQdt8F3wCdyPL/g23fXYp1i97f/Zu/OwGtP/D+Dv056KNgohUZKEsY6sg7IbZhi7LNmZGVvZvmRLyT6WwZB9yTaMZUZ2kbEkiRZLKWmltG+n3x9+nXFUtJzO6XTer+vqmjnPcj+fc0Tv7ud+7vs+srPL7zHibFVNhiAiokrI3Nwcfn5+CAsLQ9OmTfm0oZRUuEfks7OzMXHiRDRs2BAbN24s9+Uz8gT/DcTOys5BZlYOMrJykJSSgYCQaGzYewe5OUJ8/0lPURVNNagoK6GatgYa1NGHspISklLSEfoqHsK8PKiqKENbU63AtZQEAmhrqkH5k8GeKspKMK2th4Z1DaChrlLo8QIIYFxdB7WN9f87T0UJjcwM0cbGBDUMtCT5kRARkZRZW1tDS0sLTZo0gba2tqzLURgVricoLS0NO3fulHUZIokf0nEv4A06tqqHKhqqSMvIhsuM73D3cSTat6gLDXUVXLv7Cm/jkjGsrw1+XXUeVg1rwHFIK7jtuIHwqP96j9o2r4OR/Zth0XpvvP+QjhZWNTGsbzNoaapCKASEeXn462oQLvk8BwAYV9fGoqldcf56CHp3tgAAeJ/Kwdu4FGxa1AeG+lrIzs6FhroKzl8PgbPH38jJ4azSRERExVHhQlBFFPE2CQKBADWr6+BFxMdFUru0rY+zV4IQFfMB8e/T0LCegej4x0HRSE3LQhsbE/EQ1MwEQS/j8f5DOurW0sX4H1vB91EEjl98guwcITq2qochvZsiITENDwOjROd1aVsff3g9gLKyAK8ehOPkb8Px6NlbzPf4BxlZOehh2xAbF/WBz4NwnLr0VHofDBERkRyrcLfDKqLUtI+D1DQ1/psL5VXEe/x9MxQBITF4Gyc+TidXKMS/AZFoZV0bSv8/kZpeNU2Y1zPEHb+PC6N2bWuG5NRMHP7LHxlZOcgVCnHt31d4+jwW3b5tINbe9X9f4UHgG/z7OBLpGdmorv/x9lf+qvKXfJ7DwekEbt4PK5f3T0RfxzEcRPKHPUHFoP7/Y3U+ferr8+DzudsPX6NrWzNYNqiOp89j0cbGBBmZ2fAPegsAqFurGgBgWN9mYufpVtWEob74rNlvY8WvdeDMI0z8qTVsW9aD76MI3LwXhku3nyPxQ0bp3iApnHr16iE8PFzWZVQKnDGaSH6xJ6gYTIyqAhAPPmnpX36E8U3MB0S8TUJbGxMAH2+F3Q94g+z/H7OjpqqMzKxcZOeIf4WGxePOw9dibaVlZIu93uB5G2OdT+Dc1WBYmlWHy8/dcGXfeHRtZ1bm90qVX/PmzREQECDrMoiIZI49QV+hrqaC1jYmeBnxDilpJZu74Y7fawzo3hhmdfRhbKiDvaceifYlfsiAirISjp4X/2FkqKf1xW51ZWUlmNXRw9PncbjrHwkAMDc1wObFfTFjVDtc9X1ZohpJ8aipqZXrml+fUlVVxfDhwwEAQ4YMwfr165GamiqVaxMRfQ17gr7AyEAbE39qDR0tNZy5ElTi8/8NeANlJSUM7dMUb+OSEf7mvWiff9Bb1KutC6sGNUTbqmio4leH9hjWx6bINrU0VXFi83CMHPDfbbTQsARExSbzyTCqUHR0dBAQEIAtW7YAABYuXIjnz5+jVq1aMq6MiOgj9gR9Yv7kzqJFKTTUVKChroLUtCzsP/0IIV+ZMbowaelZeBwcjW+a1MLJfwLF9l31fQVrCyNMGd4WDwPfICklEy2sakJVVRleF4ueffdDSiY8Tz3E1BHt0Ki+IcKjkmDVsAZa25hgxrKzJa6RqLwsWbIEpqamouU0NDQ0oK+vj99++w2DBg2ScXVERAxBAIDnrxNw7lrwfxvygNT0LCQkpSPoRaxoHE++f3yeI+Kt+Jpir6MSce5acIHemIs3QvE2Lhm+/3/rKl+uUIhN++6gdVMTNKpviGra6rj1IBw+D8JFt90+pGbh3LVgxL0Tv32wfo8PHgZGoWMrU9QxrobQsHh4/HETwS9LHtSocsq/pVrYrVV9fX2oqanh0qVL5VrDt99+W2A9MTU1NfTr169M186/lVezZs0y1UdEpPAhSJAnxIvX7/Di9btin5M/meGnwqMSxeYEyhcZk4TImMIXYRUK83DXPwJ3/SMK3Z+SmikWzgT/v0p3Xh5w7e4rXLv7qtg1k2KJjIzEDz/8gA8fPhTYl5KSgtzcXHh7e5drDU2aNIGWVsHZzLOyssp87ezsbBw4cKBMbRARKXwIUs1OQ5aafExRrpqTJusSSE4IhUKcPHmy0H1ZWVnIzc2Fm5tbudagqakJJycnaGhoiLZlZmbCy8urzNcu79qJSDEo/MBotcwUqGWlQJBXcQcVC4RCqGWlQC0zRdalEBWbm5sbHjx4IFr/LzMzEy9fvvziCvGkmKT1tCLR5xS+JwjIg1pmMldnJ5Kw9PR0dO3aFcOHD4enpyeWLl2KTZs2IS2tcvZocsbokuncuTOcnJzQqVMnaGlpIS4uDt7e3lizZg38/PzEjt22bRssLCzQrVu3Qtt68OABzp8/j8WLF2P58uUYPHjwF6/96NEjDB06FMDHqRvGjx8PU1NTvH37FidPnsSWLVuQm5srmTdKFRpDEBFJhEAgQLt27WBnZwdbW1s0atQIdevWFe13dXWFq6sroqKiEBQUBF9fX3h7e+PGjRty/QNH1jNGb968GVOnToWSUuk79gcOHFimEBcTE4NOnTohJCSkWMfPmTMH7u7u8PPzw4IFC/DmzRuYmZlhwoQJ8PX1haOjI/bt2yc6vk6dOmjQoEGR7TVq1EgUnB4/fgxNTU3RvoEDB0JfXx9//PGHaFv+bOlz587F6tWrsXPnTuzbtw9NmjSBm5sbWrRogbFjx5boMyD5xBBEJEe6d++OH3/8Ec7OzkhMLDgQXxZUVFTg6OiIX375BSYmJrh58yauXr2KrVu3IiQkBLm5uQgKCkLXrl0RHR2NBg0aoHHjxujUqRNmzJiBd+/eYcuWLdi0aZPo1hkV34ABA8oUgCTByMgItra2xQpB3bp1g7u7O3bs2IGpU6dCKPxvKMLmzZtx8uRJ7Ny5E35+fqWa2dzLywteXl6i15aWlrC0tMScOXPEjlNRUcH//vc/bNu2DdOnTxdtj42Nxfr167F8+XK8fMnJZys7hiAiOdK8eXNMmjQJK1asqBAhyMzMDCdOnED16tXh6uqK/fv3F3giLX9gdFRUFEJCQhAUFIRz587Bw8MDmpqaGDZsGJydneHo6Igff/wRjx8/lsVbkVv5PVF//fUX/vnnH6lff/369VBWVi52j9jChQvx9u1bzJgxQywAAUBGRgbGjh2LV69eYe7cuRg9enR5lAwA0NPTw5EjR7B//36x7Q8ePAAANGzYUKohKDv74/JIeXl5yMnJ+crRJCkMQUQK5smTJ5g8eXKZ26lduzZu3bqFK1euYPLkyUhJKfnA/fT0dOzevRsHDx7EmjVrcP36dbRv3x7Pnj0rc32KJiQkBBcuXJD6ddevX1/sY6tUqYKOHTtiz549oh/6n4uJicGlS5fQv39/SZVYqLi4ODg6OhbY3qtXLwiFQjx9+rRcr/+5a9eu4ciRIwgODkZ6erpUr63IGIKIFExaWhr27t1b5nZWr14NPz8/jBo1qsyDgjMzMzFz5kxUrVoVGzduhJ2dXZnro4qnTp06UFFRwYsXL754XHBwMPr37w9dXV2p9ni2b98es2bNwp49exAZGfn1EyQoJSUFw4YNk+o1iSGIiErJ3t4ew4YNk+hTUR4eHnj48CE0NDSQkZEhsXapYlBR+fgjJyvry4tR548Nyz9eGjp27IizZ8/i3r17mDlzptSuS7Kl8PMEEVHp5OTkQE1NTaJtqqqqQigUFhgrQpVDfu+KiYnJF48zNTVFeno64uM/LgWUkZHxxe81NTW1Mt1CGjZsGC5dugQfHx/07Nmz0k7jQAUxBBHJOVVVVXTo0AF9+/YVeyTdwMAAzZs3L/CloaEBTU1NWFtbi7WjoqICKysr0WsNDQ00a9asyFXfz5w5gwULFkhsojslJSUsWbIEFy5c+GpPAcmnpKQk+Pr6ol+/fkU+0aaurg57e3v8/fffom1xcXHQ19cv9HvN0NAQqqqqosBUUvPmzcPBgwexZ88e9O/fH6mpqV8/iSoNhiAiOaanp4cHDx7A2dkZAwcOxJUrVzBv3jwAwODBg3Hu3DmsXr1a7MvIyAiNGjVCQEAABg4cKGrL0NAQ58+fB/DxsWI/Pz/MnDkTp06dwvLlywtce+HChTAyMsLZs2dhbGxcpvehq6uLQ4cOoXXr1vjll1/K1BZVbGvWrIG5uTkWLVpU6H4PDw8YGhpiw4YNom2+vr5QV1dH7969Cxyf/z189+7dEtcyZcoUuLm5YcGCBZgyZYpcz1dFpcMxQURybOjQofj3338xYcIEAB9XiH/x4gW2bNkCALh06RIcHBwKnKenp4f4+Hhs3rwZN2/eLPBbtJOTE1xdXbFv3z6oqakhPDwcGzZsQEJCguiYhIQEdOjQAQcPHsSzZ8+wefNm7Ny5ExERhS8IXBgjIyOMGzcOP//8M8LCwmBrayuayE7ecMbo4jl58iQ2b94MFxcXWFlZYdeuXXjz5g1MTU0xdepU9O3bFy4uLrh+/broHC8vLyxduhQHDhyAq6sr7ty5A21tbXTs2BEzZ87E/fv3Szw9QJ06dbB+/XoEBwcjPj5e9Hcon7e3N8LCwiTxlqkCYwgikmPh4eGYNWsW+vTpgytXruDdu3cwNDQs1m+04eHhOHfuHLZs2YKffvpJbN/kyZNFbairq0NFRaXQMRexsbHo0aMHfvjhB/z8889YtGgRHj9+jGvXruHp06d4+fKl6PZCkyZNULt2bZiZmcHS0hKdO3dGy5Yt4efnh3nz5uHAgQNyORZI1jNGy6OZM2fi4cOHcHJywqVLl0TbHz58iEGDBuHUqVNix6elpaFLly7YunUrli1bBmVlZQAfB1AfO3YMP//8c4m/d/r16wd1dXU0atQIO3fuLLB/8ODBDEEKgCGISI6dP38eBgYGWLRoEY4dO4bbt29j9erVuHz5MgDgp59+Qs+ePUXHR0REoHXr1qLXK1aswL179zB48GDcvHlTtP3Tp3P27t2LzZs3f3Gw6IkTJ3DixAmYmZmJls1wdHSEqakpqlWrBuDjb/OJiYl4/fo1goODceDAAYwePRpBQUES/UxIPnh6esLT0xPVq1eHkZER3r59K9bT+Lnw8HD06dMHOjo6qF27NoRCISIiIr46ILpv376Fbt+6dSu2bt1apvdA8o8hiEiOKSkp4eDBg9i/fz90dXXRr18/HDt2DO3btwcAHD16tNDbYfmys7MxZswYnD9/XiwsAYCOjg6OHz+OwMDAQscEFebly5fYvn07tm/fLtqmoaGB9PR0WFlZFXttqeJQUlKCiooKB1HLubi4OMTFxRX7+OTk5EoZnPX09NC4cWOkp6fj2bNnnCJCSjgwmkiOHD16FF27dhX90PDy8hKFnMTEROzfvx93794Ve8rra/z9/bFjxw7ROCLg40Dlq1ev4vz585g1a1apxruoqKhg/vz5CA4OBgDcuHEDrq6uUFdXL3Fbn6pfvz7OnDmDpKQkpKam4t69e0WuLk5U0WloaMDDwwMxMTHw8fHBw4cPER4ejjFjxsi6NIXAniAiORIRESE28Hjjxo04duwYjIyMEBISgpYtW8LCwgKXL1/G8OHD0ahRowJLZHw6BiPfypUrMWDAANFrd3d3ZGZmIjMzU3T+kSNHSjR77/79+zF06FBRgKpRowacnZ3Rpk0b9OjRo1Tjf+rXr49Hjx6hatWqom0tW7bEpUuXMGzYMBw9erTEbRLJ0oYNGzBp0iSxbTVq1ICnpyeysrJw+PBhGVWmGNgTRCTHbty4ge7du6NKlSqwt7dHSkoK2rdvjw8fPuD+/fv4+++/YWxsLPalqamJ6Oho7NixQ9ROTk4ORowYIXos+enTp7h06ZLYeSWZvdfe3h5Dhw4F8N/A4fz/fvfddxg1alSp3u/69evFAtCn7W7dulW0WCuRPLCysioQgD7l4eEhxWoUE3uCqFCLFi3irKly5t27d6hatSpmzZr1xeNGjhwp+v/Vq1cX2F/YNgCYM2dOsWvp3LnzF/fPmTMHjRs3LnZ7+T4ft5RPIBBAX18fO3bsQFRUVInbLYsqVaoA+DhvUmkWkS2r/IHnstarVy9Ur15d1mVIhIqKCnR0dMr9Oi1atPji/lq1amHHjh149+5dudciC5qamqX+xaVp06Z4+fJlmWtgCKJC6erqlnnsBimuz3trPqetrQ09Pb0StamkpPTV2an19fWlvgJ3/j/i1apVk9js2SVR1MzL0pLfE2dlZQVdXd1yu05aWproqcXKokaNGl89pl69euX6uX4uKSlJLqaqePPmDQIDA8vcDkMQFWrOnDmIjY2VdRkkp8aMGQNPT88i92/fvh1ubm4lbtfGxgatW7cuMDdPXl4ehEIhRo0ahffv35e43bKoXr06Ro8ejXnz5uHt27dSvTYA9O7dG1paWlK/br78MV9r167F7t27ZVaHPGrevDn8/PyK3B8fH4+ePXtyIs5yxDFBRCRxhw8fhr+/f6H7wsPDSz0/i7OzMwDx2Znz8vIgEAjg6uoq9QD0Kf6gopJ69OgRvLy8ity/aNEifl+VM4YgIpK4rKws9O3bt8BSBnfu3IGdnR2Sk5NL1e7Vq1cxZMgQsTESQqEQK1aswLJly8pUc2lxxmgqC0dHRxw+fFgs7KSlpWHBggX4/fffZViZYuDtMCIqF5GRkbC3t4epqSkaN26M0NBQvHjxosy/2R4/fhxnz56Fh4cH2rRpA3t7+xI9uk9UkSQlJWH48OFYsmQJWrRogZSUFNy7d69EE0hS6TEEEVG5CgsLk/gaTJmZmYiMjESDBg0YgKhSCA0NRWhoqKzLUDi8HUZEREQKiSGIiIiIFBJDEBERESkkhiAiIiJSSAxBREREpJAYgoiIiEghMQQREUkAZ/Ylkj8MQUQkES1atICFhYWsy5A6zhhNJL84WSIRScSsWbPw5s0b0fpeJF1Vq1ZFnTp1ZF0GkVxhCCIiiWCPiGxNmDABEyZMkHUZRHKFt8OIiOTY8+fPZV0C8vLyKkQdRCXFniAikktaWlrQ1NSEQCBQ6EHJ/fv3R6tWraCsrFzic5cuXQpbW1v4+Phg6dKlpa4hOjoaT548KfX5RLLCEEREcsXExASHDx9Ghw4dAACvX7/GiBEjcOPGDRlXJhvJycm4evVqqc6dOnUqACA2Nhbe3t6SLItILvB2GBHJDYFAgD///BNt27YVbTMxMcG5c+dQs2ZNGVZGRPKIPUFEVGz16tWDhoYGgoODC+yrVq0aDA0NMXHixHK7fo0aNdCiRYsCg7DV1NTg7u6OmzdvlrptfX195OTkwMPDo6xlEpGcYAgiomKbNm0aatSoAQcHhwL7jI2NYWJiAkNDw3K7vo6OTqHbVVVV0a1bNzRu3LjUbZuamqJatWoMQUQKhCGIiIpNIBAU+Sh8cHAwLl++XK7zBBkZGSEqKqpADZmZmfjll19w7NixUrft6emJoUOHlvp8RR6cTSSvOCaIiORGTEwMNmzYgMzMTNG2jIwMhIaG4sSJEzKpifMjEckv9gQRkVyZM2cOwsLC4OjoCB0dHfz111+YP38+cnNzZV0aEckZhiAikojc3FypBJG8vDxs3rwZmzdvLvdrEVHlxhBERBKxcOFCZGRkyLoMIqJiYwgiIomIjIyUdQlERCXCgdFERESkkBiCiIiISCExBBEREZFCYggiIiIihcQQREQkAZwxmkj+8OkwIqqQBAIBOnTogH///VdshujSMjMzw8qVK6GsrFzo/vbt20NNTe2LS29ERERg9uzZBeokIvnEEEREElG9enVkZWUhKSmpTO0oKSlh4MCBWLFiBSwtLdG9e3dcvny5zPWlpaXh5cuXRYYgOzs7CAQCpKSkIDY2ttBjoqKiylwHEVUcDEFEJBFr1qxBZGQkFi1aVKrzlZSUMHjwYKxYsQJ169aFqqoqsrKyigwtJRUdHY2FCxcWuq9+/fqYN28eAKBatWoYN26cRK5JRBUbxwQRkUSoqKhARaXkv1flh5/Q0FDs3bsXDRo0gJqaGgQCAYRCYTlUWpCTk5PoWt9//z3Mzc2lcl0iki2GICKSifzw8+LFC+zfvx9mZmZQV1eX+hibGjVqYNy4caIep5ycHDg5OUm1BiKSDYYgIpIqVVVVjB49GmFhYThw4ABMTU2hrq4us3p+/fVXsYVf1dTUMGbMGNSqVUtmNRGRdDAEEZFUqKmpYfTo0Xj16hV27NiBOnXqQE1NTaY1Va1aFTNnzoSGhobY9pycHPz6668yqoqIpIUhiIjKlZqaGiZOnIjIyEhs374dtWvXlmnPz6emTJkCJaWC/wxqaGhg+vTp0NPTk0FVRCQtfDqMCtWsWTO8e/dO1mVQGejp6eH9+/cSbdPIyKjIwc+qqqowNjZGy5YtAQDq6ur44YcfMH78eGhoaJQq+CgpKcHc3BwJCQmFXi88PBxv374tcbv59c2dO7dAL9Cnpk2bhhUrVpSqfSKq+BiCqFD//POPrEugMsrLyyuXQcYBAQGFbre2toaVlRXGjBkjsWupqanht99+K3L/48eP0axZs1K1PXbsWGhraxe5X0NDA/PmzcP69euRmppaqmsQUcXG22FUKCMjIwgEAn7J8ZeSkpLE2/Tw8ICfn1+h3zN+fn5wc3MTO75jx464ffs2cnNzxQYfF1dGRgbs7e0LrWXevHml7gVSVlbGggULvto7paqqirFjxxarTS6bQSR/GIKIqNzcunULtra26NKlC65cuVLqMCRpQ4YMgZGR0VeP09DQwOLFi784gFsg4LIZRPKKIYiIyt2tW7dgZ2eHzp07i8JQTk6OzOpZtGgRVFVVi3VstWrVMHTo0HKuiIhkgSGIiKTGx8cHdnZ2aNWqFc6fP4+8vDxkZ2dLtYZevXrBwsKi2D046urqcHFxKfQpMiKSb/xbTURS9+jRIwwYMAAtWrSQehhasmRJiQNN7dq10a9fv3KqiIhkhSGIiGTG398f33//PZo1a4YTJ05AKBSWaxhq27YtWrduXeIQpKKigmXLlpVTVUQkKwxBRCQRycnJSE5OLtW5AQEBGDZsGJo1a4YzZ85AKBQiKyurVAuyfomLi0upFmUVCASwsrJC165dJVoPEckWQxARScT06dOxatWqMrXx5MkT/Pjjj7C2tsapU6egpKSEjIwMidRnYWEBOzs7CIVCpKenF/jKH6hd2L709HQIBAI4OztLpBYiqhg4WSIRSYQkH31/9uwZhg4dimnTphU6W3RpxMbGwsnJqchbYYMHD0azZs3g4uJSZBshISESqYWIKgaGICKqsCQVgAAgMTERa9asKXJ/48aNYW1tDTc3N4ldk4gqNt4OIyKSAM4YTSR/GIKIiMqAM0YTyS+GICIiIlJIDEFERESkkBiCiIiISIR9PTsAACAASURBVCExBBGRRLRt2xZWVlayLoOIqNgYgohIImbMmIHRo0fLugwiomJjCCIiuSIQCDBy5EhMmjQJ7dq1w//+9z9UqVJF1mURkRxiCCIiubJixQrs2rULDRo0QLVq1TB//nxcvXoVysrKsi6NiOQMQxARyQ09PT04OztDXV1dtE1DQwM2Njbo27evDCsjInnEZTOIqNiysrKQlZVV6L7mzZtjxIgRcHJyknJVH4PQ6dOny9xOaVaYz8cZo4nkD0MQERXbqlWroKJS+D8bT58+xf3797F58+Zyu76ZmRmOHj1aYJbmzMxMbNq0CUePHi112+rq6tDQ0CjxeZwxmkh+MQQRUbGlpqYWuS8rKwvR0dF48OBBuV3fz88P/v7+sLa2FoWxvLw8CIVCbNiwAVFRUeV2bSKqfDgmiIjkhlAoxKBBgxAUFIS8vDzk5eUhMTER33//PQMQEZUYe4KISK68evUKNjY2cHd3R4cOHdC5c+cixykREX0Je4KISO7k5eUhNjYWSUlJDEBEVGoMQURERKSQGIKISCJycnKQk5Mj6zKIiIqNY4KISCKcnJyQmZkp6zKIiIqNIYiIJCImJkbWJRARlQhvhxERSQBnjCaSPwxBRERlwBmjieQXQxAREREpJIYgIiIiUkgMQURERKSQGIKIiIhIITEEERERkUJiCCIiIiKFxBBERERECokhiIiIiBQSQxARkQRwxmgi+cMQRERyqVGjRjAzM5N1GZwxmkiOMQQRkVyKjo5GbGysrMsgIjnGEEREcik5ORkfPnyQdRlEJMcYgoiIiEghMQQRERGRQlKRdQFERKQ49PT0oK6uLnqdl5eH7OxsJCYmQigUFnmeQCCAubk5TExMkJWVhcDAQLx//77Q9lVUVBAXF1doO9WrV0dmZqboVurn9QiFQqSmpiI1NbVY76dOnTqIiYlBVlZWgX1KSkowMjJCfHw8srOzi9UeSRd7goiISGoOHz6Mt2/fir6io6ORkJCAlJQUHD9+HMbGxgXOmThxIp4/f47g4GBcvnwZN2/eRFxcHI4fP46aNWuKHevl5YXY2FjY2dkVev2AgAC4u7sXWU9MTAxSUlIQERGBZcuWQUNDo8j3Ymtri1evXsHCwkJsu7a2NrZu3YrU1FRERUUhLS0NJ0+eLFAryR57goiISKoiIyMxZcoU0WtVVVU0a9YM8+fPR7169dC6dWvRvt9++w3Tpk3D3r17MXLkSISEhEBbWxu9e/fGypUrcfXqVTRv3hwZGRli19i1axesra2LNXj+03qUlZWhp6eHXr16YfHixfjmm2/Qv3//Ar1UXbt2xcmTJ6GsrFygvS1btmDAgAEYO3Ysbt68iSZNmmDXrl04deoUbG1tkZubW6LPi8oPQxAREUlVamoq/vrrL7Ftp06dAgAsWbIELVq0gJ+fH+zt7TFt2jS4u7vDyclJdGxCQgK2bduGwMBAXL9+HQ4ODti+fbtof0xMDGrVqoW1a9fC0dGxVPV4enri0aNHWLVqFYYPH44DBw4AALS0tLBy5UpMnz4doaGh0NXVFTtPW1sbw4cPx+LFi3HkyBEAwJs3bzB79mwcO3YM1tbW8Pf3L8GnReWJt8OIiCSAM0aX3bNnzwAABgYGAIDp06cjLi4OS5YsKfT4GzduYM6cObh7967Y9ufPn8Pd3R0TJkyAvb19qetZs2YNYmJiMHbsWNG2xo0bi3p55s6dW+AcJSUlODg4iAJQvvzxS9WrVy91PSR5DEFERGXAGaMlp3fv3hAKhQgMDIRAIED37t1x6dKlAre6PrV27Vr4+fkV2O7i4oLAwEDs2rUL1apVK1U9OTk5uH79Otq2bSvaFhgYCHNzc+zfv7/Qcz58+ICDBw8iLCxMbLujoyNSUlLw77//lqoWKh+8HUZERFKlr68PZ2dn0WtdXV3Y2tqiQ4cO2Lp1K96+fYvq1atDQ0MDr1+/FjtXR0cHtra2AD4GUIFAgNTUVFy/fl3suMzMTDg4OMDX1xfr1q3D+PHjS1VrbGwstLS0oKmpifT0dKSnp5e4jWnTpmHIkCH49ddfOcFnBcMQREREUmVgYCAKQXl5ecjMzMSrV68wd+5cbNiwAQBEj5xXqVJF7NwGDRrgwoULYtuCg4NhaWlZ4Dr379+Hu7s75s+fj+PHjxc4rzhUVVUBoNSPuM+dOxdubm5Yv3696L1RxcEQREREUhUaGlpoaPlUUlISEhISYGVlJbY9MDAQderUEb329PSEiYlJke0sXboU/fv3x86dO9GkSZMS12phYYGIiAjk5OSU6DxlZWVs2bIFEydOxKJFi7Bq1aoSX5vKH8cEERFRhXTq1Cl06dIFDRs2FG3Lzs5GZGSk6OtL44WAjz1KDg4OMDIyKnFPjLGxMWxtbeHt7V2i81RVVXHq1Ck4ODhgxIgRDEAVGEMQERFVSK6urkhLS8OJEydQv379AvtbtGgBa2vrr7aTf1vMwcEBhoaGxbp21apVsXfvXigrK2P9+vUlqnvbtm2ws7ODvb09Dh8+XKJzSbp4O4yIiCqkly9f4ocffsDhw4fx9OlTXLhwAU+ePIGamppoIHVCQkKhj6p/zsXFBf379y80NNWsWVM0D5CSkhIMDAzQrl07VKlSBRMnTkRAQECxa27ZsiXGjx+P8PBwODo6FpinaOPGjbh3716x26PyxRBERERS8/jxY8TGxhb7eG9vb1hbW2PChAno168fvv32WwBAUFAQZs2ahV27diE5OVl0vL+/P9TU1Aq0k39bbO3atQgJCRGrR0NDQzSuKDc3FzExMVi7di08PT0LPJ32qYSEBFy/fl1snbH69euLnlQrbKzS5wO9SbYYgoiISGrmzZtX4nNiYmKwcuVKrFy58qvHzp49u8h9Dx48QJcuXcpcT747d+4UaO/48eM4fvx4qdsk6eKYICIiCeCM0UTyhyGIiKgMOGM0kfxiCCIiIiKFxDFBRERyrF69eujevTuUlZVLfK6pqanovxMnTix1DW/fvsVff/3FW4IkdxiCiIjk2IkTJ9CyZcsytdGiRQv8/vvvZWqjb9++OHfuXJnaqOwOHTqE+fPnIzw8XNal0P/j7TAiIjlmZGQk6xIAVJw6KrLevXujbt26si6DPsGeICKiSmDdunXYtm2b1K8bFBRUqltxRBUBe4KIiIhIITEEERERkUJiCCIiIqoARowYAS0tLVmXoVAYgoiIJICPh1NZbd++HTY2NrIuQ6EwBBERlQFnjCZJ4veTdDEEERERkUJiCCIiIiKFxBBEREQkB6pXry7rEiodhiAiIiI5EBYWhsaNG8u6jEqFIYiIqAwsLS0BAD/++COXRKBypa6uDg0NDVmXUakwBBERlYKWlhYOHDiA8+fPAwB2796N58+fw9nZWcaVEVFxMQQREZWCh4cHRowYIbZNRUUFrq6uBbYTUcXEEEREckmWkxMaGhpi0qRJBWoQCATIy8vDwoULZVQZEZUEV5EnIrkUHx8PGxsbvHjxQurX1tTULHJSO4FAgMaNG+Ply5dSCWrGxsblfo0vyf8cVq9eLZfhT1tbGyoqKkhMTCz3a+no6Mj8z4vEMQQRkVz6888/kZycLJNr16lTB2vXri1yf1paGpydnaUSgrZt2wYDA4Nyv05R8t/j8ePHcfXqVZnVUVp6enpQU1NDTExMuV/L09MT8fHx5X4dKj6GICKSSwkJCfDy8pLJtZWVlTF9+nSYmpoW2iN06tQpHDt2TCq1rFu3TirX+Zr79+/L7M9DXuzcuRM5OTmyLoM+wTFBREQllJubizFjxiAzMxPAx96Q/B6RiIgI/Prrr7Isj4iKiSGIiKgUbt68iWbNmuHw4cMIDw/HkydPsGHDBtjY2CAuLk7W5RFRMfB2GBFRKYWEhGD48OGyLoOISok9QURERHJgzZo1ePXqlazLqFTYE0RERCQH5s+fL+sSKh32BBEREZFCYggiIiIihcQQRERERAqJIYiIiKgCCA0N5YzSUsaB0URERBXAN998I+sSFA57goiIiEghMQQRERGRQuLtMCKiSqB169bIzc2V+nULW0CWSF4wBBERyTGhUAgA6NixIzp27CizOmQRwORNbm4uP6cKhiGIiEiObdmyBY6OjlBSKvnoBiMjI2hpaSE1NRUxMTGlriEmJgbe3t6lPl9RdOrUCUFBQbIugz7BEEREJMfc3d3h7u5eqnNPnjyJgQMH4p9//sGgQYMkXBl9LjAwUNYl0Gc4MJqIiIgUEkMQERERKSSGICIiIlJIHBNE9BVVqlSBsbGxrMtQWHl5eYiIiEBOTo6sSyGiSoYhiOgLtLS0EBwcjNq1a8u6FIX2zz//wN7eXtZlEFElw9thRF9Qu3ZtBqAKoE2bNrIugYgqIfYEERXT2LF7ERDwRtZlKJShQ1thzhw7WZdBRJUUQxBRMQUFRePBg3BZl6FQbG0byLoEIqrEeDuMiIiIFBJDEBERESkkhiAqkbp162L79u0cqEpERHKPIYhKpEaNGpg0aRIsLCxkXQoREVGZMAQRERGRQmIIIiIiIoXEEEREREQKiSGIiIiIFBInSySJsLGxgampKcLDw+Hv7w8AUFdXR+PGjQscGxkZifj4eDRt2hShoaHIyMgQ7bO0tMTLly+RlZUl2ta4cWM8e/as/N8EEREpFIYgKrNDhw6hYcOG8Pf3h42NDaKjozFw4EDUr18fd+7cwfXr18WO37JlC86ePYubN29i7969+Pnnn0X7Tp8+jZ49eyIsLAwA0K5dO3h7e0NbW1uab4mIKoCOHTuiatWqOHfuHADAwMAAPXr0EDsmNzcXKSkpePLkCSIiIkTb9fT0Cl10NyMjA7GxsXj48KHYL2Cf0tPTQ+/evWFhYYHMzEwEBQXh3LlzyMzMFDuucePGaNasmdi2nJwcvH//Hvfv30dSUlKBeu7cuYPw8MJnnh82bBguXryI9+/ff+FTIUliCKIyady4MVq1agVLS0sIhUIIBALcvn0b3333HSIjIxETE4OePXsWef4PP/yAkydPFghKAODs7IwRI0ZARaVs36ZKSkoQCoVlaoOIpM/JyQmWlpaiEGRubo7Dhw8XebynpyccHR2Rk5ODBg0a4PDhw8jJyUFubq7oGDU1NQgEAsTHx2Po0KG4fPmyWBsTJ07EmjVroK2tjdDQUKipqaFevXqIj4+Ho6Mjzpw5Izp2wIABcHV1LbSWjIwMzJ07F7/99hsAiOoZNWpUoSFo+vTp2Lx5M5o2bcoQJEUcE0RlEhcXBwMDA4wbNw6GhobIy8tDhw4d4O3tXazzp06dij/++ANaWloF9oWHh6Nt27ZF/rZWXD179kRgYCCWLl0KS0vLMrVV3lRU+FeS6GscHBygo6MDHR0dVK1aFXXr1sXmzZvh4OCAqVOnih3r6OgIDQ0Nsa/OnTsjIyMDBw8ehLq6uujYyZMn4/fff8eZM2dQu3ZtWFpawszMDBYWFvD398fp06cxYMCAAvU0aNBAVI+uri6sra3h6+uLTZs2oXnz5l98L0pKSli8eDE2bdokmQ+HSoT/4lKZxMfHo2/fvhgwYADCwsLw8OFDTJw4UbS/Tp06iI6OFvuqU6eOaP+VK1fw999/w93dvUDbhw8fRlpamkTqtLKywpIlS/Ds2bMKF4gsLIywc+covH27BllZW/Hu3XqcPTsNLVvWk3VpxSYQCNC9e8HxX0TlITMzEykpKUhJSUFycjIiIiLwyy+/IDo6utCQ8qmsrCzcuHED7u7uMDIygo2NDQBAX18fHh4eOHv2LEaNGoXo6GjROS9evECfPn0QEBCA33//HWpqamJtpqWliepJSkpCYGAgpk2bBoFAgH79+hVZi7GxMe7fv4+FCxfi+PHjZfhEqLR4O4zK7N69e+jXrx/U1NTQqVMnbNy4EZmZmbh9+zYiIiJgamr6xfOdnJzg7++P7777Tir15geiJUuW4OnTp/Dy8sKRI0cQFBQklet/qlcvaxw7NhGxscnYuPEyXryIg7FxVUye3Bm3b89Dv35b8M8/T6VeV0lt2DAEtrYN0KoVB7BL26pVqzBp0iQIBIISn5s/1q5v37549+5dqWuIjY1Fr1698OrVq1K3UVZCoRBpaWnIy8sr1vFVq1YFACQnJwMABg8eDC0tLbi5uRV6fHZ2NlxdXXH48GH06tULf/755xfbz2/3S/UYGxvj6dOn+Omnn9CoUSMMHjy4WLWT5DAEUYkEBweja9euoqe1ZsyYgdatW2P06NHIysqCt7c39u7di2bNmuH27dvFajMlJQXjx4/H7t27yzz+p6RkGYiMjaviwIFx8PePhL39RqSm/jfocs+e2/DxmQdPTweYmi5AVlZOuddTFgYGBW9nknSMHDkS+vr6ZWpDVVUVenp6pT5fT08PnTt3lmkIGjJkCMzMzHDgwAGx7Xp6ejAxMRG91tbWRqdOneDs7Izbt28jODgYANCqVSsIhULcu3evyGtcvXpVdOyXQpCKigrmzJkDAPDx8SnyuEePHmHkyJEAgEaNGn3lHVJ5YAiiEklOTsa1a9dEr48cOYI5c+Zgw4YN8PHxQc2aNTF9+nT8+OOPAAAdHR1MnjxZrI3AwEDcvHlTbNu1a9dw7tw5TJ8+vUT1VKlSpdDH8D/VoEGDYrVVWCDy9fUtUT0lMX58B+jra2Hq1ENiAQgAUlIy4eR0EoMGtYCRkQ4iIt7D0bEjtLXVsX79f+OtatfWxfz5vbB58xUEB8egUydz9OhhhbNn/bFsWX9ERSVh9mwvODn1xLlzAejXzwYtWtTBzp23cOzYfWhoqGLq1M7o0cMK6uoq8PV9iXXrvBEfnwIAMDKqisWL+8Dd/W+MHNkW3bpZIj09G8eO3ce+fR8/m8mTO6F1a1Po6VXBb78NE9VC0pHfA3T69CNcuPBE6tfftm0ElJQEUFKS3ugKZ2dnODg4APgYOOrWrQtzc3MEBQVhzZo1YseuW7cO69atE9uWnJyMEydOYPbs2aKeGgMDAyQnJ4tNz/G5uLg4AED16tXFth86dEh0nqamJiwsLGBsbIyDBw+KghNVTAxBVCZxcXFo1aoVHBwc0L17d7x//15079zQ0BCbN2+GsbGx2DmRkZEAgNWrV4v9g+Ps7Iy4uDgkJiaKHb969eoir9+7d2/s2LHjizWWpncpPxDl11oeevZsgpcv4/H4ceHXuHgxEBcvBope9+nTFIaG2mIhqHp1HUyb1gWnTz9CcHAMbGxMMG1aF4wb1x6RkYmoU0cfyckZmDChA/r1s4GeXhVERSXC2Lgq1NVVcOXKLDRpUgs7dtxAamoWRo1qh+HD26Bt29WIifkAPb0qmDatC7p0scCHDxm4di0Y337bAHv3joWSkhI8PW8jKysXublCCIV5yMjIhlBYvNsRJFn37oVhx46bXz9QwrZsGQ4lpZLfiiuL7Oxs0QMTubm5uHHjBjw8PHDo0CGkpKSIHbtq1SpcuHABysrK6NatG5ydnbFnzx7MmjVL7KmxpKQkaGpqQiAQFHkLK//24ee3DjMzM0WPz3/48AGPHz/G5cuXxZ4ko4qJIYjKLC4ursBvX8DHQdNLly4t8rzPw01qaiqWLVv21eM+dfz48a8OKOzdu7foEdvieP36NU6fPg0vLy/ExcWV260xExM9hIRIvsdET68K1q/3xvLl4u/Z0FAbVlZLkJCQCgCYM8cOrVubok2bVfDz+zi/yoYNlxEYuATLlvXHpEn/3VYIDY3FwIHbAHzseXjyZAlGjmwLT8/b2L3bB9991wiWlsaYM4eDO6n8rV27FkeOHCnWsaGhobh16xYA4Pr163j16hV2794NVVVVsSfJHj9+DAcHB1hbWyMgIKDQtlq3bg0AePJEvMdt7NixYgOpSX5UihA0a5ytrEuoFEyMqsm6BJn5NPj4+PiIfhO0sLAot2sKBCjVYNbiOHnSr8C2GzdCRQEIAPr3t8GTJ28QF5cCE5P/xoNcuxaCPn2aip174sRD0f/n5eUhIOANLCyMyqFyovK1Z88e2NnZYcqUKbh48aKot+bYsWNwc3PD7NmzRbfaPjdr1iykpKSwh6cSkdsQlJPz30DRCYNbybCSyunTbuLKqqjgIy0REe9hYqJb5H6BQIAqVdQKjBcqjvDwhK9uMzHRQ/36hoiIKNjTJhTmiQW0xMR0sf05OblSvwVCJCkzZsxAjx49sHXrVly7dg0fPnzAmzdvsHz5cixbtgzh4eFYsWIFsrOzAQAaGhpwc3ND7969MWXKlAK33Eh+yW0IunTpEi5evFhggFpFZm5ujtevXxeYer2iuXPnDhISCv4QrQxkHXw+deVKEP73v76oU0cPEREFZ4jt0sUCf//9M0aM+ANeXg+Ql5dXIHhoaKgW2nZOTsEZsj/flpGRjb//DsTIkbsLbUOWnw1ReYqPj8fs2bPh6ekJNzc3TJkyBQCwYsUKqKurY/HixXB0dISvry+UlZXRvn176OrqYt68edi+fbuMqydJktsQFBcXh169esm6jGJr3749fHx8cPfuXUyYMEHW5SiUd+/ewd3dHV5eXrh//76syxHx9LwDJ6eeWLt2MIYO3Sk2oFhFRQlLl/ZDTo4Q3t4fpyPIysqBvr74o+jNm5ugtB48eI2ePZsgMzMHycn/zcq9evUgKCsLMHfuiWK3xcHQVB4OHToEQ0ND0evIyEi4uLgUGJNTmKioKLi4uODRo0eF7t+7dy/09fWho6ODKlWqiOYYWrRoEfbs2YORI0fC3NwcwMcxSAcOHCjwoMStW7fg4uJSrJ6h/HoeP35c6P6QkBC4uLggNjb2q22R5MhtCJI3+QN+R48ejVWrVuHly5cyrkhx+Pr6luuj7qX16lU85s8/hXXrBkNPrwo2bbqCV6/iYWZWHXPn2qFDh4YYM2YP3r//OGv2nTsvMWRIK0ye3AmnTz9C69ammD+/9L8IrF/vjZ9+aoUjRxzx889HER2dBEfHjpg3zw7z5p0sUVvJyRkwM6uOvn1tcPfuK8TFJZe6LqJ8hw4dEnsdGRn5xYctPhUVFfXVY9evX1/o9hcvXsDFxeWr17h165Zo0HVZ6wkJCSn2eyPJ4bIZUtC+fXt069YNwMdJyRYsWCDjiqiiWL/eGyNG/IHatXVx5sw0BAQswZ9/TkXt2roYPnyXaC4eANi58xb++usxtm0bgbdv12DHjlGYObN4T8gU5uHD1xgwYCssLY0RGrocycmbsHx5fyxbdg4eHv+UqK19+3yhrKyEs2enYcCAZl8/gYioAhAAYD92OfP29haFIODjHBeWlpbsDZIDFhYWohllv/3WDb6+5fdnZmCghVq1dJGcnIGwsKLHZBkZVYWuriZevIgrdOxPaZiaGkBFRRmvX78r9ezUamoqqFpVAwkJqRIbTzRz5nfYuPEnJCYmlmlG48osIiICJiYmWLjwNFatuiD162dnb4OKipJo1ncquerVqyMhIQFCoWT+PlPxsSeonH3aC5SPvUFUmISEVAQEvPliAAKAmJgPCA6OkVgAAoCwsAQ8fx5bpuU5srJyEB+fwgHVRCU0d+5cvH79Gr///jv69esHZWVlWZekMBiCytny5csL3T569GiYmZlJuRoiKglNTU3Y2NiIDc4l6VFXV0fTpk1Ro0YNWZdS7mrXro2JEyfizJkziI6Oxr59+9CvXz+pr6eoaBiCypGtrW2RK6Orqqpi/vz5Uq6IiIpr2rRpePfuHR49eoTY2FgcPXoUmpqasi5LYTg4OCAhIQH+/v6IiYnBmTNnRCu/V3aGhoYYNWoUzpw5g7dv3zIQlSOGoHJU2BIQnxozZozc9Qbp6elh6NChqFevnqxLISo3dnZ22LBhAzQ0NCAQCCAQCDBgwIAinyYiyWrfvj127twJLS0t0aSddnZ2+P3332VcmfQxEJUvforl5Eu9QPnye4McHR2lVFXZNWjQAIcPH8aoUaMQHh4u63JIQaipqWHixIlSu9748eMLjMtQV1eHg4MD/Pz8KtS4Jy0tra8fJAWdO3eW2A/mYcOGFViVXl1dHYMHD8bNmzfFVgyoDCwtLYt1XH4gGjVqFOLj43HhwgV4eXnhwoULle4zkRaGoHJSq1YtuLm5iW1zdHTEhQsXxCbcys7OhoqKCr+Bib5AXV1dqiGoUaNGha7rpq6ujkmTJlWop3gqUghq0qSJRNpq2LBhgRAEAMrKypg0aZJoOYvKQl9fv8TnGBoaolevXkhPT8fr16/h7+9fDpVVfgxB5cTLywteXl5i20aNGoUDBw7g4sWLMqqK5EW9egZo2LA6srJyERQUrfCTDyYnJ6NVK+mtEeju7o6ZM2dCXV1dtC0vLw8RERH45ptvpFZHceQ/Ii9ry5Ytk9gj8osWLcLChQuhoaEhtv3du3do1qzyzUPl7u6OuXPnFuvYd+/e4dy5c/Dy8sLFixcrXSCUNoYgogqkYcMa8PR0gK1tA9E2oTAPZ874Y+LEAwofhqTF3d0dEyZMgEAggJqaGvLy8pCbm4uff/5Z1qUphE2bNmH69OkQCASiIJqTk6Ownz+DT/nhwGiiCkJFRQnnz89ArVrVMGjQdtSvvwCNGv0PM2YcgZ2dFU6cmCTrEhVGfHw8rK2tceTIEQiFQjx48AB2dnY4ffq0rEtTCB8+fEDTpk2xf/9+ZGdnIyAgAAMGDMCBAwdkXZrUvHv3Dvv370f//v1hbGyM0aNH4+zZswxAEsaeIJIIgUAAHR0dJCcnV6hBo/KkTZv6MDevgf79t+Ds2f8WWQwJiYGWlhrc3X+AjY0JHj+OLHCukpLgq4uYCgSCL/7ZfG1/ca9TWURFRWHMmDHo378/Zs+ejRs3bsi6JIUSFxcHR0dHdOvWDYsXL8b58+dlXVK5Y4+P9LEniMpsypQpiIiIwIMHDxAREYFff/0VAGBubo73798jOjpa7Gvs2LEAgPDw8AJPxv3777+oW7cuAGDlypV49OgRHj9+aBYTwAAAIABJREFUjMWLF5e6PisrKwwbNgw6OjqlbkMacnM/DratW7fgIElPzzv4/vutePPmvWibuXkNnDkzDenpvyEraytu33YSu41Wv74hnjxZgm7dLPHPP78gK2srUlI2YffuMdDS+m+sS+vWprh+fQ5SUzcjK2srfHzmoVMnc7Hr29s3wb17C5CVtRWpqZvh5TUJJiZcxoLKX15eXqGD1CuTq1evws7ODkZGRuzxkTKGICoTExMTLFq0CC1atIC5uTmaNWuGGTNmoEWLFlBWVkZSUhKMjY3Fvvbs2QMAqFatGlatWiU251DVqlWhpKSE3r17o23btmjVqhVatWqFPn36oHPnzqWq0dTUFIcOHUJsbCzOnj2L0aNHV8hJ1+7dC8O//4Zh48afcPz4JIwa1Q716hkAAOLikvHnn/5ISEgFANSsWQ23bs1DrVrV8OOPv6N79/WIikrElSuz0LLlx89TXV0FTZrUwpEjjnjwIBx9+mzG2rWXMHZse8yZ0wMAUK2aJi5enInIyPfo1m0dundfj4yMbJw7NwP6+h+fOrKzs8L58zMQEhKD775bh2HDdsHS0hg3bsxB1aoahbwTIiqJCxcu4NKlS3xKWAYYgqhMVFVVoaKiAl1dXQBAQkIC+vfvLzYNwJesXbsWf/zxR4Hf9J49e4YZM2YgJycHWVlZCAsLK/PSBRoaGujbty/27t1bIQORUJgHO7sN2LbtOnr0sMK+fWMRFrYKL1+uhKvrQOjqVhEdO2eOHTQ1VdGr12acOxeAa9dCMHjwDjx7Fo0lS/qKtXvgwF3Mn38K//zzFEuWnMWNG6Gwt//4KHPjxjWhr6+Ffft8cefOS9y4EQoHB0+sXXsJmpqqAABX14G4e/cVRo7cjRs3QnHmjD969FiPWrV0MWFCB+l9QKSQFKEniGSHY4KoTF69egVXV1f4+vrizZs38Pb2xp49exAXFwcDAwPUqFGjwGDSiRMnIjY2FgCwZcsW2NvbY8qUKdi6datYu/k6d+6Mb775BhMmTJBY3erq6ujbty/69u2LzMxMXLp0CV5eXvjzzz+RlJQkseuUVFJSOmbMOIJffz2Gdu3M0LVrI/TubQ1n554YMqQV2rVbjbi4ZHTpYoGoqCTY21uJnR8bm4yOHRuKbbt9+4XY6zdvEtG4sTEAICDgDaKjP+Dkyck4ffoRLlx4gr//foqlS88CAKpW1UCLFnXw55/+GDGijVg7cXHJ6NjRHOvWeUv6YyAikgqGICqzDRs24LfffkO7du3Qs2dPXLt2DT/88AOio6ORlJSE1atXix3/acjIy8vDuHHjcOfOHVy4cKFA27169cKmTZswaNAgpKSklEv9XwpE0qSnVwXa2uqIiHiPnBwhbt16jlu3nmP58nMYMKAZTp+eimnTumDp0rMwMNBCtWqacHbuWaCdyMhEsd+c09PFxxYIhULR/tTUTNjausHJqScGDGiG4cPbIDdXiBMnHmLcuH3Q1/+4bEHr1qYwNxdfxDIpKR2JiWnl8EkQ/Yc9QVSeGIKoRKKiouDi4oLHjz8+vfTTTz+hbt26WLNmDW7duoVbt24hJSUFgwYNwtatW5GZmQlfX98vtvnq1SssW7YMe/bsEfvHbty4cfjll1/QvXv3Ipfo6N69O1atWlXo7LL5tLW1i/3+Pg9EPj4+xT63rH7/fSTatq0PU9MFBZ7S+vNPf0REvIeZ2cdbgu/epeH58zh07172taxevozHpEkHMHnyQTRrZoIRI9pgzhw7PHkShU2brgAAtm+/jhUrKv/TOVTxGBgYiB6WIJI0hiAqkaioKCxdulT0+smTJ9i4cSNCQ0Ph4+ODmjVrYtCgQVi7di2Aj2OGPl8X5/3794iJiRHbtm3bNvzwww+wsLAAALRp0warVq3CwIEDoampCUtLS0RHRyMxMVHsvKdPn2LXrl1frNnKygqNGjUq0ftMT0/H5cuXcfPmza+uAScp588/weDBLfHrr90K3GJq184MtWvr4v79j2Hw6tVgTJ3aGWZmhnj5Mh7Ax8fXb92ah/fv09Cnz+ZiXbNfPxscPjwB1tYuCAtLwKNHEXj0KAJjx9qiVi1dJCWl4+HD1xg2rA3c3P5GdnYuAMDIqCqePl0KD49LcHUt2INHJCmpqalISEiQdRlUSTEEUZkEBgZi6NChmDt3Ltzc3PD+/Xv88ccfOHr0KOrWrYvQ0FBs375d7JwzZ85g3bp1uHXrFnJzP/5QzcvLw/jx47F7925kZGSgU6dOCAoKgqurq+i8devW4cyZM2JtRUVFYceOHV+ssXfv3sWaaTY/+Hh5eeHkyZNISUmBhYVFgTXgysuBA74YPLgl1q4djCFDWuHy5SCkpmbCyqomfvyxJfz8XmPXrlsAgDVr/sawYa1x5cosrFhxHtHRHzBuXHu0aWOKAQO2fuVK/7l58zkSE9Nx6tQUuLv/jaSkdPz4Y0vo6mriwIGPPXjz5p3AxYs/49KlX7BlyzUoKythwYJeyMkR4uDBu+XyWRDlS09PR1oab7tS+WAIojK7du0arl27VmD769ev0aVLlyLP69tX/CmmsLAwUa+Lh4cHPDw8JFlmoQoLPrKSkyNE//5bMH68LX76qRXGjPkWmpqqeP36HVasOId167yRlpYFAIiO/oC2bV3h4tIfixb1hoqKMp4+fQt7+424fDkIAJCWloXr10OQkCD+np49i0ZGxsdHcRMT09Ct2zosXdoPy5cPgLa2OgIDo9Cr1yb4+HwcUH35chA6d/bAwoW9sWnTUKSlZeHOnRdwcfkLr1+/k+InREQkWQxBpHAqUvD5XG6uEDt23MSOHTe/emxExHuMG7e3yP2vX79Dly5rC2xfuVJ8bE9wcAyGDfvyLcXbt18U+xYbyYaGhir09Kp8/UAiEmEIIoVQkYMPkSQsXtwHixf3kXUZRHKFIYgqPR8fHxgYGCA9PV3WpRBJXEREBExMTGRdBiIiImRdAlGJMQRRpSfLyQ+JytuAAQPwf+3de1yO9/8H8NedDpIsh1Bihi8tp3KIOTdsbMJ8i1opw0pqMjM11rfCz2GmTXxJLYeYVBZWFsoYxoSovpJTKssxJYdUqs/vjz3cD620Dndddd+v5+Pxfjx2X8f3dWd5ua7PdV3Dhw9HkyZNqr3uwoULYW5ujvj4+FqNwbt9+3a9Pk6CSFEYgoiIGrEHDx4gMjKyRuva2toCALKyshAREaHItogaBb47jIiIiFQSQxARERGpJIYgIiIiUkkMQURERKSSGIKIiIhIJTEEERERkUpiCCIiIiKVxBBEREREKokhiIiIiFQSQxARERGpJL42g6iK3n23Bzp2bCl1GyrF1LSj1C0QkRJjCCKqhBBC/t//93+TJexEtb36cyAiUhReDiOqRGZmJpKSkqRuQ+UdOHBA6hZIIs2bN4exsbHUbZCS4pkgokoUFhaib9++UrdBpLKuXbsGLy8vWFtbY+PGjdi1axeePn0qdVukJHgmiIiIGqyRI0eiffv22Lp1Kzw9PZGVlYXNmzejV69eUrdGSoAhiIiIGrRHjx5h3bp16NatG+zs7NCxY0dcvHgRcXFxGDVqlNTtUSPGy2FERNQolJaW4tChQ9DR0UHnzp0xatQonDlzBseOHZO6NWqkGIKIiKjBa9++PRwdHeHq6gotLS1s3boVAQEBSE9Pl7o1asQYgoiIqMHq378/3N3dYWNjg6SkJCxfvhw7duzA8+fPq7yNMWPGwMrKqsw0IQSePXuGzMxM7Nu3D5mZmYpunRoBhiAiImpQdHV1YWtrCzc3N3Tv3h0///wzRo4cidOnT9doe6ampnB2dsbx48fLhKc2bdqgT58+WLVqFd577z2cPHlSUYdAjQRDEBERNQg9evTAJ598AicnJ+Tk5CAoKAg//PADHj58qJDtOzo6lrt81r17d5w6dQpr167FoEGDFLIfajx4dxgREUlGTU0N1tbWOHr0KC5dugQTExPY2tqie/fuWL16tcIC0OtcvXoVhw4dgqmpaZ3uhxomngkikoCVlRUsLS3h5uaGJ0+eSN0OkWRMTU2xe/duCCHg6emJ77//HsXFxfW2f3V1dfTu3RsZGRn1tk9qOBiCiOrRwIED4e3tjQ8//BAAoKmpCVtbW4m7IpJOQkICOnXqhE8//RSLFi3CF198ge3bt+O///0vbt26pdB9TZ48GdnZ2QAAmUyGNm3awMrKCr169YK9vb1C90WNh2DVT2VlZYlx48ZJ3ger/mvgwIEiOjpa/J2/v7/kvbEqr9zcXDFixAjJ+6iLioyMFEIIERkZKXkvAISWlpawtrYWsbGxori4WERFRYkxY8YImUxWq+0uXLhQCCFEcXGxKC4ulv//l5+fL3788cc6//nKZDLRvHlzyb9fVvnimCCiOtS3b1+Eh4fjzJkz8rM/Dx48QF5eHgDg3r17UrZH1KAUFhYiIiICY8eOhbm5OW7fvo19+/YhNTUVHh4eaNmyZa22361bN6irq0NLSwsuLi7Q0NBAQUFBubvCoqOjMXLkSADAjRs3cPfuXdy5cwd37tzBkSNH5C90DQ4ORnp6OlJTU5GamoobN24gICAA6up/XWRp0qQJVqxYgaysLMTHxyMtLQ3u7u7y/Wzfvh3379+Xb//ixYuYNGkSAGDYsGGIiYkp09c777yDgwcP1uo7oLIYgojqwMvwc+HCBVhbW0Mmk+HBgwfw9PRE586d8fjxY6lbJGrQEhIS4OzsjA4dOmDt2rVwcHBARkYGNm/ejD59+tRq20VFRQgICMDChQsxc+ZMrFixosz85s2bQ0NDAwDwxhtvwNTUFAYGBjAwMEBsbCwCAwMBADo6Ovj6669hbGwMY2NjmJmZoV+/frCxsQEArF69Gr1798bbb78NExMTDBo0CNOmTcNnn30mX3/evHlo3749DAwMMHfuXISGhqJZs2ZQV1eHrq4ugL8u3bm5uSEyMhJNmzat1bFTWQxBRAr0T+Fn9erVyM/Pl7pNokYjLy8PgYGB6NWrF6ZMmYKWLVvi/PnzOHfuHBwcHORhpSb8/f0RFxeHRYsWYciQIVVaZ+/evejWrVuF8x4/fozMzEy0atUKOjo6cHFxwaxZs+Rnfh88eAAXFxcsWrSowvVPnTqFvLw8GBkZlZmup6eHnj17ws7OrhpHR1XBgdFECtC3b18sWbIEVlZWkMlkAP76hbd27VqsX7+ewYeoloQQiIuLQ1xcHLp3747IyEhs374d48ePr/HNBUIIODs7Izk5GUFBQTAzM0NRUVG55SwsLJCbmwsdHR04OTnh559/ls+ztbWFqakpZDIZunXrhrfeegtOTk7o0aMHsrOzcf/+/TLbSkxMRKtWrdCmTRsAf/3uePToETQ0NDB69Gjk5OTgxo0bMDQ0lK+Tm5sLFxcX3sZfBxiCiGqB4Yeo/nTq1AnOzs6YPXs2SktLsWzZMmzatKlW20xLS4Ovry9Wr16NxYsXw8fHp9wykydPxvPnz/HkyROEhYUhJCREPu/69euIj4/H2LFjYWRkhHfeeQfPnj2DkZGR/HfCqzQ0NKClpYUXL14AAIYMGQIDAwMUFBQgLS0Nw4cPR0lJSa2OiaqOIYioBioLP/7+/tV6rxERVW7YsGGYN28ePvroIyQmJsLLywshISEoKCio0vphYWE4d+4c7t69W+F8Pz8/nDlzpsKzQADg7u7+2nXPnj2L8PBwhIeHY9u2bdi8eTPs7e1x+fJlaGtrw9jYGKmpqfLl3333XVy9elV+iWzTpk3YvXt3lY6DFI8hiKgaGH6I6keLFi1gY2ODzz77DN26dUNERAQGDBiAxMTEam/r1q1blT5zqLi4GL/99ltt2gXwV1hKSUnBlClTEBkZCU9PT4SFhWHWrFn43//+hyFDhiAgIACff/55rfdFisEQRFQFDD9E9cPY2BguLi6YOXMm7ty5g+DgYAQFBSEnJ6feerh48SJyc3MBAL///vtrzxClpKSUecxFXl4enJ2d8fHHH2P//v0IDg5GdnY2Vq5cCSMjI1y/fh0zZ87E0aNHAQCXLl0qN2bopUePHuHChQtlpj19+hQXL15UxCHSKyR/WJGqFB+W2Piqb9++Ijw8XJSWlsofsHbv3j3h4eEhtLW1a7zdzMxMIYQQS5YskfwYWZUXH5ZY96WpqVnmIYmxsbHC0tKy1g9JZLH+qXgmiKgCFZ35uX//Pvz8/Hjmh0iBevTogWPHjkFfXx9+fn6YNWsWMjMzpW6LVASfE0T0ioqe83P//v0yz/mpLADZ2NigU6dO9dgxUeOWlZWFbdu2IScnB/b29pg1axY6dOggdVukIhiCiFD78PPStm3b8N5779VDx0TK4enTp/jqq69gZGQEd3d3DBkyBBkZGYiNjYWlpWWFt5kTKQpDEKk0RYUfIqqdoqIi+XvDevfujZSUFISGhuLKlSvw8PBAq1atpG6RlBBDEKkkhh+ihuvy5ctwd3eHoaEhvv32W0yfPh1ZWVkICQlB3759pW6PlAgHRpNKUfSAZ3NzcyxdulT+WUNDA/Pnz4eVlRUA4MyZM/D29n7t+kuWLMEXX3xRgyOh+tKiRQuOUZHI48ePERgYiMDAQPkDE8+dO4fExEQEBgZW64GJRBVhCCKVUFd3ez19+hTp6enyz0IIZGdny6e97imzL+3evRu7du2q0b6pfhgYGGDPnj1St6HyTp48iZMnT8pfnbF06VL4+vrCy8sLP/zwg9TtUSPFEERKra5vdU9JScGcOXPkn2fMmIGdO3dW+ZfyjRs3EBcXV6seiFSJmpoamjRpAjU1Nbx48YLv2aJaYQgipcTn/BApD5lMhtGjR8PJyUn+/rCFCxciNDRU/iJSoppgCCKlInX4EUJACFGn+yBSFS/fH+bu7o6OHTsiNDQU/fv3R1JSktStkZJgCCKlIHX4eWnEiBG4du1aveyLSFmZmZlhzpw5sLOzQ1ZWFrZs2YLAwED5+7yIFIUhiBo1U1NTLF68WPLw89LZs2frdX9EykJTUxOTJk2Ck5MTLCwsEBMTg8mTJ+PIkSM8u0p1hiGIGqWGFn6IqGZ0dHSwePFizJ49G6WlpQgKCsKMGTOQlZUldWukAhiCqFFh+CFSLh07dsSsWbPQunVrrF27FkFBQQxAVG/4xGhqFExNTREeHo6EhAQ+4ZlIiaSmpqJTp06wtbVFv379cPPmTb43jOoNQxA1aAw/RMrv1feG9e/fH2lpaQgNDcXly5excuVK6OrqSt0iKSmGIGqQBg8ejKioKIYfIhWTmJgIZ2dndOjQARs3bsTnn3+OGTNmSN0WKSmGIGpQXoafU6dOYcKECQw/RCoqLy8P/v7+uHfvHm7evCl1O6SkODCaGoTBgwdjyZIl+PDDDzngmYiI6gVDEEmK4YeIiKTCEESSsLCwQFBQELp27SqflpWVhdWrVyMoKAgFBQUSdkdERKqAIagetW7dGjExMVK30eAUFBRg/fr1+M9//sPwQ0RE9YYhqB6NHDkSpaWlKC0tlboVyTk4OMDFxQUaGhpo2rQpFi5cCGNjY/j6+uL8+fNSt0dERCqAIagenTlzRuoWGozz589j0aJFcHR0hLe3NwwNDWFpaQlLS0vExcVh8eLFfA8XERHVKd4iT5IpLCxEYGAgunTpAmdnZ9y+fRsAMGbMGMTHxyM2NhYDBw6UuEsiIlJWDEEkOYYhIiKSAkMQNRgMQ0REVJ8YgqjBYRgiIqL6wBBEDRbDEBER1SWGIGrwGIaIiKguMARRo8EwREREisQQRI1OVcKQubm5xF0SEVFDxxBEjVZlYejMmTMMQ0REVCmGICWkpqaGN998U+o26g3DEBER1QRDkBJav3490tPTcfDgwTJvaVd2DENERFQdDEFKqE+fPgCA999/H8nJyfDx8YGWlpbEXdUfhiEiIqoKhiAlp62tDW9vbyQnJ2PMmDFSt1OvGIaIiKgyDEFKLCoqCnv37gUA/Otf/8Lhw4exZcsWtGnTRuLO6lddhSFNTU1s2bIFO3furLRGjRpVbl0NDQ0AwPLlyyGEqHXt2rWrVt8REZEqYghSYnfu3MGUKVMwYcIEpKenQyaT4ZNPPsHVq1fh7u4ONTXV+vErOgzJZDK0bNkSenp6ldbLwPOqFy9eAAD8/PzQtWvXWlVMTAzS0tIU8yUREakYwVKuOnHihBBCiM2bN8unNWvWTPj4+IjCwkLx0vHjx0XPnj0l71eq0tLSEk5OTiIrK0u8KjY2Vpibm9fpvjMzM4UQQixZsqTW24qIiBC+vr6Sf5+sxleRkZFCCCEiIyMl7+V1lZGRISZMmCB5HyzlLNU6FaDC8vPz4ePjg4EDB+L06dMAgOHDh+PChQtYt24ddHR0JO6w/nHMEBGRamMIUjFJSUkYOnQoHB0d8fDhQ2hoaGDevHlISkrCuHHjpG5PEgxDRESqSV3qBqj+CSEQEhKCQ4cOYc2aNbC3t0eXLl0QExOD6OhouLi44M8//5S6zXr3Mgxt374djo6O8Pb2hqGhIcaMGYMxY8YgLi4OS5YsQXx8vNStEjUavr6+GDJkSI3Xb9u2LZYtWwZ3d/carV9YWAgnJyf5P26IXsUQpMLu3bsHBwcHBAcHIyAgAMbGxpgwYQKGDx8Ob29vbNiwASUlJVK3We8YhogUJyEhAfn5+TVe/+7du7hx4waeP39eo/VLSkrw5MmTGu+flJ/kA5NYiq2KBkb/U2lqagoPDw9RUFAgHyB8/vx5MWDAAMmPR+qqiwHUHBjNagjVGAZGs1h1WRwTRACAoqIirF69Gr169UJsbCwAoF+/fjh9+jTWrVsHXV1diTuUDscMEREpJ4YgKuP69et47733MHXqVNy/fx/q6uqYN28eUlNTYWVlJXV7kmIYIiJSLgxBVKGIiAgYGxvD398fpaWlMDQ0REREBKKiolTqDfUVYRgiIlIODEH0Wrm5uXB3d8fIkSNx6dIlAMCECROQkpICDw8PqKur9rh6hiEiosaNIYj+0cmTJ2FmZob58+fj6dOnaNasGVatWoVz585h8ODBUrcnOYYhIqLGSbX/KU9V9uLFC6xbtw5RUVHYsGEDxo8fj759++L333/Hjz/+iPnz5yMnJ0fqNiXFW+uJqmb8+PFYsGCBwrd77do1zJ07V+HbJeXFEETVkpaWhg8++ACWlpbYuHEjjIyMMH36dIwdOxYeHh4ICQmRukXJVSUMaWpqSt0mkWRu3ryJuLg4hW83MzNT4dsk5Sf5ffosxVZNnhNUk3rjjTfEunXrRHFxsfzZOb/++qvo0aOH5N9BQyptbW0xf/58cefOHfF3K1asqPX2+ZwgVk2LzwliqXpxTBDVWF5eHtzd3WFubo6zZ88CACwsLHDhwgX4+PhAS0tL4g4bhufPn+P7779Hly5d8Pnnn+Pu3bvyeW+//baEnRERqbZ6vxz24YcfoqSkBAcPHnztMu+++y60tLQQExOD4cOHo0OHDmXml5aW4smTJ0hJSUFGRkaZecOGDYORkdFrt/3s2TNERUUBAAYPHozOnTu/dtlTp05VeHrV1tYWBw8eRG5u7mvXrQ1dXd1G9Zj3hIQEDBkyBK6urli2bBl0dXXh7e0NW1tbzJ07F0eOHJG6xQbhZRjavHkzNmzYgBEjRsDb21vqtoiIVFq9nnravHmzePHihdDX169wfvPmzcXTp0/F+vXrBQARHR0thBCioKBAXkVFRfLLCWFhYUJdXV2+/r59+8pdcnhVenq6fNmdO3dWuqyNjU25/tzc3IQQQvTq1avOvqPExERx8uRJ4e7uLgwMDKq9fmWXw7p06SIKCwvFzJkzy0z38vISL168EMOHD69V74aGhiIkJET+HZaWloqQkJDX/rxZtS9eDmPVtHg5jKXqVe+Xw4KDg6Guro5p06ZVON/Kygo6Ojr44Ycf5NMyMjLQtGlTeWlqaqJdu3ZYv349pk6dCldX1zLbyMzMhK6uboVlYmJSZtmHDx++dtk9e/bIl1NTU4OXlxf8/f0V+G1UTE1NDUOHDsX333+PP//8EydPnoS7uzsMDAxqvW1NTU1oamqiWbNm8mmTJk2Cr68vNm3ahBMnTtRq+7dv34aDgwMmTpyIjIwMyGQyTJ8+HampqXBycoJMJqvtIRDViLa2NjZu3AgHB4fXLtO0aVNs3LgRH330EdTU1BAQEICAgACMHj36tet8++23CAgIKPe7hYgah3pPXsnJyeKPP/6ocN7Ro0dFfHy8/HN0dHSZszevlkwmE9nZ2eLAgQPyafv27Xvt8n+vnTt3iuzs7H9crn379iIhIUEUFBSI8PDwOj8TlJycXOGZqZKSkiqdIarsTJCxsbEQQgg3Nzf557y8PHHo0CHRpEkThR5Hs2bNhI+PjygsLJQfw2+//SZMTEzq/c+cMhfPBFW9jh07JrKysoSamlqF821sbIQQQgwZMkSoq6vL/9xGR0dXuPzAgQPly4wbN07y46tu8UwQS9VLkoHRwcHBGDRoELp161Zm+ptvvomRI0eWOQtUGS0tLWhqatb5+Jn27dsjJSUFvXv3lvQWcEWfIdLV1cXevXtx+/ZtTJ06FSUlJQrtNz8/Hz4+Phg4cCBOnz4NABgxYgQuXryIVatWoWnTpgrdH9E/CQ4OhqGhISwsLCqcP2PGDKSkpODUqVPyabdu3cLYsWOhp6dXbnkbGxs8fPiwzvpVJfr6+oiJiUFsbGyVytHRUeqWSQlI8pygHTt2YPXq1bCzs4Ovr698uoODA/Lz8xEaGlpm+SZNmpQZ7Kyurg4jIyN4enpCV1cXW7duLbN8s2bNMHny5Ar3nZiYiJs3b8o/a2hoYNy4ceWWu3r1KtLS0gAAFy9ehL29PQCgR48e1TzaskaPHo1WrVpVukxVwsHLQDR06FD4+fnh9OnTiIiIQERERJX6kMlk2LFjB9q2bYtBgwYhLy+vSuvVRFJSEoYOHYrp06fDz88PrVu3hofXMsuwAAALVklEQVSHB6ysrODq6opDhw7V2b6JXrVnzx6sX78ednZ25Qbsv3yW05dffllmemRkJFxdXTFp0iRs375dPl0mk8Ha2hp79uyBs7NzvfSvzB4/foyIiIgqv44nISGhjjsiVSBJCHr48CH2799fYQgKCwsrd2bHyMgIt27dKredS5cu4d///ne5v0T19fWxd+/eCvf92WefYcOGDfLPLVq0QExMTLnlvLy8sHz58modV1V8+eWXaNOmTaXLvPHGG9Xa5stA1LlzZ7z55pvQ0ND4x3XmzJkDExMT2NnZ4fr169XaX00IIRASEoLY2Fj4+fnBxsYGXbt2xcGDB7F//34sX74cQojXrl9QUIDnz5/XeZ8VefLkCYqLi+t9v0IIPHr0qN73q8yeP3+O0NBQfPzxx5g7dy4KCgrk8+zt7VFSUoIdO3aUWSc7Oxu//vorrK2ty4SgoUOHQl9fH/v372cIUoDCwkJs2bJF6jZIxUj2xOjg4GAcPHgQ5ubmiI+Px7Bhw9CtW7cKBy3evXsX1tbWAIC2bdti8eLFaNOmDWbMmIFz586VW/7WrVvo169fhft9+vRpmc+5ubkVLltXt79XdNbp75KTk6Gvr1+l7WVnZyMmJgYRERH45ZdfUFJSUqXBzQcOHICBgQHc3d2xZ88eFBUVyecNGjQI165dK/MajFatWqFLly4Vft/VcefOHdjb26NJkybyn+mkSZMwadKkWm1X1b0u9FN5wcHBmDNnDiwtLcucOXV0dMTevXuRnZ1dbp2wsDBs2rQJenp68mBqY2OD6OjoRvU4CyIqS7IQFBsbi8zMTNjZ2SE+Ph6Ojo64dOmSfOzIqwoLC3Hy5En558OHD+OPP/5AbGwsBg0ahKtXr5ZZvrS0tMJfZBUpLS1Fenp6rY6lvlUUfKorMzMTs2fPxk8//YRvvvkG8+fPl8/75JNP8ODBA3h5ecmnubm5oVWrVrUOQWZmZggMDMSAAQMA/PUv8yVLluC7776r1XaBv86IVfcsmqJoaWmVueOuPunr6yM1NVWSfTdG586dQ1JSEuzt7eUhaODAgTAxMYG7u3uF60RGRmLTpk3yS2JNmjSBlZUV31NFpAQkG5Xt6+sr7t69K7S1tcWjR4/E/Pnzyy3zurvDevfuLQoLC8XZs2fL3NVUF3eHvVoTJkyQ5O6wBw8eiJCQEGFpafmPd3FV5+6wjRs3CiGEmDJlinyZkSNHiqtXr5brydzcvMbH9PJOsVef8XT06FG+YoMlSc2bN08UFRWJ1q1bCwBiw4YNIi0tTchkMvkyL+8O+/rrrwUAERUVJb9LbMyYMSIvL080bdpUDBs2jHeHsViNtCR9bcbWrVvRtm1b+Pr6omnTpuWuxVcmOTkZK1euxIABA8qcxVAm2dnZ2LFjByZOnIj27dvDwcEBUVFRCr2La8GCBUhKSsKWLVvQpUsXAMDx48ehra0NMzMzAICxsTG0tbVr/PbzDz74AJcuXYK3tzc0NDSQk5MDZ2dnvPvuu7hy5YrCjoWoqnbu3InS0lJYW1tDU1MTNjY2CA4OrnRcWlhYmPwusWnTpmHv3r1lxhQRUeMjaQhKT0/HkSNHsGDBAuzbt6/at5quXLkSqampWLp0Kd566y35dCMjI/z555+vrcpeldEQbN26FcOHD0e7du3qJPi8qqCgANOmTYOGhgbCw8OhpaUFIQR2794tf6Dl1KlTsWvXrmpvu3379ggJCcGBAwfQuXNnCCGwY8cO9OjRA4GBgZX+hUNUl3JycrBv3z5MmzYN77//PvT09MrdZfp3+/fvR2lpKaysrDBlypRyd7ESUeMj2Zigl7y8vDBu3DhERkZWOH/Xrl1o27ZthfMKCwthZ2eHiRMnwtjYGDdv3sTu3btx8eLFSvf5+PFjAH9d509KSqpWv1evXoWvry/u379frfWqw8/Pr862/fIup1fvdkpNTYWrqyu2bNmCL774AitWrMCuXbvw008/wdPTE9bW1vJBzFXx8inRL2+HB4Dr16/DxcUFcXFxij0gohoKDg5GTEwMCgoKEBMTg9u3b1e6/JMnT/DLL79g2bJlKC0t5TvxiJSE5NfkWIqtysYEARA6Ojplxj68LG1t7TLvYbt8+bKYPn26SEhIqPK+u3fvLn799Vf5uJ+ioiKxatUqoaWlJfn3wmK9WjKZTKSnpwshhJg0aVK5+X8fEwRATJ06VQghxMaNG+XTOCaIxWq8JfmZIKp/z549q3D635/DExoaCn9/f6xYseIft9m0aVN4enrC09MTWlpaAIATJ05gzpw5SElJqX3TRAomhMD48ePRrl27MnefvlRSUgILC4syD1fdv38/LCwscPnyZfm05ORkWFhYVPusMhE1DJInMZZi65/OBFW1OnToIFasWCHatWtX6XIjRowQly9flp/9yc3NFe7u7q99PxOLxWoYxTNBLFUvngmi18rKysLixYtfO79ly5ZYtWoVPv30U/nb4SMiIuDm5lanY6aIiIgUQdK7w6jxsra2xpUrV+Dk5ASZTIa0tDSMGzcOU6dOZQAipdC/f38EBwdL3QYR1SGGIKqWrl274vDhwwgPD4e+vj6Ki4vh7++Pvn378kWopFS6dOmCoUOHSt0GEdUhXg6jKtHQ0MCCBQvg4+Mjf8t9QkICnJyccP78eYm7IyIiqj6GIPpHQ4cOxebNm9GzZ08AQF5eHry9vbFhw4Y6e4gjERFRXWMIotfS09ODr68v3NzcoKb215XT6OhozJ07F7du3ZK4OyIiotphCKIKWVpaYtOmTejQoQMA4Pbt25g3bx5++ukniTsjIiJSDA6MpjLeeustxMTE4Oeff0aHDh1QWlqKwMBAGBsbMwAREZFS4ZkgAgCoq6vD1dUVy5cvR/PmzQEAiYmJcHJyqvHb44mIiBoyhiCCmZkZAgMDMWDAAABAfn4+li5dim+//ZYDn4mISGkxBKkwHR0deHl5YeHChWjSpAkA4MCBA3B1dUVGRobE3REREdUthiAVZWlpiQ0bNqBTp04AgLt378LDwwMhISESd0ZERFQ/GIJUjIGBAfz9/WFlZQUAEEJg586dmD9/PnJyciTujoiIqP4wBKkINTU1zJ49G2vWrEGLFi0AAMnJyXB2dsbp06cl7o6IiKj+MQSpgD59+iAwMBCDBg0CADx//hzffPMNVqxYgaKiIom7IyIikgZDkBLT0dHBmjVrMH/+fKir//Wjjo2NhYuLC27cuCFxd0TVM3bsWBgZGWHr1q1St0JESoIhSInZ2dnJ/zsnJwdfffUVgoKCIISQsCuimhk2bBhMTEwYgohIYRiClJwQAtu2bcOXX36Jhw8fSt0OERFRg8EQpISysrIAAFeuXMGcOXNw7NgxaRsiIiJqgPjuMCXk5OSE999/H3379mUAIqoBHR0dvPPOO9DT04OZmZnU7RBRHWEIUkKPHz/G4cOHUVhYKHUrRI2OiYkJbt68CVdXV+jr6yM+Ph6bNm2Sui0iqgMMQURErwgLC0OrVq2gqakJNTU1qKurY+bMmZg4caLUrRGRgnFMEBE1GKampujfvz+Cg4PLzevUqRMGDx6M8PDwOtu/lpYWevXqVW66hoYGvvvuO9jb29d423p6ejA0NETv3r15hyZRA8EQREQNxrBhw2BtbV1hCCoqKsKzZ8+QlpZWZ/vX0dGpcLpMJqv1vgcNGoSePXtCW1sb+fn5Nd4OESkOQxARNQp3795FcnIyPD0963Q/lpaW6NSpE2QymXxaYWEh1qxZgx07dtR4u4sWLcKoUaMU0CERKQrHBBERvWL69OkoKChAQUEBSkpKUFhYiKNHj+LHH3+UujUiUjCeCSIiesWJEydgYmICOzs7GBgY4Pjx44iIiOA4HiIl9P+/fbZn6y1HvgAAAABJRU5ErkJggg==;" vertex="1" parent="1">
          <mxGeometry x="340" y="280" width="416.22" height="466" as="geometry" />
        </mxCell>
      </root>
    </mxGraphModel>
  </diagram>
</mxfile>
